<mxfile host="app.diagrams.net" modified="2023-05-18T14:49:23.450Z" agent="Mozilla/5.0 (Macintosh; Intel Mac OS X 10_15_7) AppleWebKit/537.36 (KHTML, like Gecko) Chrome/113.0.0.0 Safari/537.36" etag="S8hz2S_KfO78Hr5eqn26" version="21.2.1" type="github">
  <diagram name="Page-1" id="9f46799a-70d6-7492-0946-bef42562c5a5">
    <mxGraphModel dx="2693" dy="1876" grid="1" gridSize="10" guides="1" tooltips="1" connect="1" arrows="1" fold="1" page="1" pageScale="1" pageWidth="1100" pageHeight="850" background="none" math="0" shadow="0">
      <root>
        <mxCell id="0" />
        <mxCell id="1" parent="0" />
        <mxCell id="CF5oaoLNDQAHsKBp2C5p-6" value="" style="shape=folder;fontStyle=1;spacingTop=10;tabWidth=70;tabHeight=30;tabPosition=left;html=1;whiteSpace=wrap;" parent="1" vertex="1">
          <mxGeometry x="104.5" y="1770" width="185" height="240" as="geometry" />
        </mxCell>
        <mxCell id="CF5oaoLNDQAHsKBp2C5p-3" value="" style="shape=folder;fontStyle=1;spacingTop=10;tabWidth=70;tabHeight=30;tabPosition=left;html=1;whiteSpace=wrap;" parent="1" vertex="1">
          <mxGeometry x="-228" y="1780" width="200" height="260" as="geometry" />
        </mxCell>
        <mxCell id="CF5oaoLNDQAHsKBp2C5p-1" value="" style="shape=folder;fontStyle=1;spacingTop=10;tabWidth=70;tabHeight=30;tabPosition=left;html=1;whiteSpace=wrap;" parent="1" vertex="1">
          <mxGeometry x="422" y="1805" width="180" height="195" as="geometry" />
        </mxCell>
        <mxCell id="CF5oaoLNDQAHsKBp2C5p-2" value="LCP&lt;br&gt;Runtime" style="text;html=1;strokeColor=none;fillColor=none;align=center;verticalAlign=middle;whiteSpace=wrap;rounded=0;" parent="1" vertex="1">
          <mxGeometry x="432" y="1805" width="60" height="30" as="geometry" />
        </mxCell>
        <mxCell id="NGx8hzoizXmu8q-xxpEj-28" value="" style="shape=folder;fontStyle=1;spacingTop=10;tabWidth=90;tabHeight=30;tabPosition=left;html=1;whiteSpace=wrap;" parent="1" vertex="1">
          <mxGeometry x="432" y="2070" width="400" height="210" as="geometry" />
        </mxCell>
        <mxCell id="aiHX-xgp03A9afXReRbh-173" value="" style="shape=folder;fontStyle=1;spacingTop=10;tabWidth=200;tabHeight=60;tabPosition=left;html=1;whiteSpace=wrap;" parent="1" vertex="1">
          <mxGeometry y="-330" width="1500" height="1040" as="geometry" />
        </mxCell>
        <mxCell id="aiHX-xgp03A9afXReRbh-171" value="" style="shape=folder;fontStyle=1;spacingTop=10;tabWidth=340;tabHeight=80;tabPosition=left;html=1;whiteSpace=wrap;" parent="1" vertex="1">
          <mxGeometry x="-230" y="810" width="1730" height="920" as="geometry" />
        </mxCell>
        <mxCell id="aiHX-xgp03A9afXReRbh-157" value="" style="html=1;whiteSpace=wrap;opacity=30;" parent="1" vertex="1">
          <mxGeometry x="1020" y="-29" width="410" height="454.5" as="geometry" />
        </mxCell>
        <mxCell id="aiHX-xgp03A9afXReRbh-1" value="Tenant" style="swimlane;fontStyle=1;align=center;verticalAlign=top;childLayout=stackLayout;horizontal=1;startSize=26;horizontalStack=0;resizeParent=1;resizeParentMax=0;resizeLast=0;collapsible=1;marginBottom=0;" parent="1" vertex="1">
          <mxGeometry x="-230" y="-0.8200000000000003" width="160" height="52" as="geometry" />
        </mxCell>
        <mxCell id="aiHX-xgp03A9afXReRbh-2" value="+ id: Long" style="text;strokeColor=none;fillColor=none;align=left;verticalAlign=top;spacingLeft=4;spacingRight=4;overflow=hidden;rotatable=0;points=[[0,0.5],[1,0.5]];portConstraint=eastwest;" parent="aiHX-xgp03A9afXReRbh-1" vertex="1">
          <mxGeometry y="26" width="160" height="26" as="geometry" />
        </mxCell>
        <mxCell id="aiHX-xgp03A9afXReRbh-3" value="Post" style="swimlane;fontStyle=1;align=center;verticalAlign=top;childLayout=stackLayout;horizontal=1;startSize=26;horizontalStack=0;resizeParent=1;resizeParentMax=0;resizeLast=0;collapsible=1;marginBottom=0;" parent="1" vertex="1">
          <mxGeometry x="311.5" y="585" width="160" height="52" as="geometry" />
        </mxCell>
        <mxCell id="aiHX-xgp03A9afXReRbh-4" value="+ id: Long" style="text;strokeColor=none;fillColor=none;align=left;verticalAlign=top;spacingLeft=4;spacingRight=4;overflow=hidden;rotatable=0;points=[[0,0.5],[1,0.5]];portConstraint=eastwest;" parent="aiHX-xgp03A9afXReRbh-3" vertex="1">
          <mxGeometry y="26" width="160" height="26" as="geometry" />
        </mxCell>
        <mxCell id="aiHX-xgp03A9afXReRbh-5" value="Role" style="swimlane;fontStyle=1;align=center;verticalAlign=top;childLayout=stackLayout;horizontal=1;startSize=26;horizontalStack=0;resizeParent=1;resizeParentMax=0;resizeLast=0;collapsible=1;marginBottom=0;" parent="1" vertex="1">
          <mxGeometry x="827" y="312" width="160" height="52" as="geometry" />
        </mxCell>
        <mxCell id="aiHX-xgp03A9afXReRbh-6" value="+ id: Long" style="text;strokeColor=none;fillColor=none;align=left;verticalAlign=top;spacingLeft=4;spacingRight=4;overflow=hidden;rotatable=0;points=[[0,0.5],[1,0.5]];portConstraint=eastwest;" parent="aiHX-xgp03A9afXReRbh-5" vertex="1">
          <mxGeometry y="26" width="160" height="26" as="geometry" />
        </mxCell>
        <mxCell id="aiHX-xgp03A9afXReRbh-7" value="&lt;&lt;Mapping From&gt;&gt;&#xa;Authority" style="swimlane;fontStyle=1;align=center;verticalAlign=top;childLayout=stackLayout;horizontal=1;startSize=40;horizontalStack=0;resizeParent=1;resizeParentMax=0;resizeLast=0;collapsible=1;marginBottom=0;" parent="1" vertex="1">
          <mxGeometry x="818.5" y="580" width="161.5" height="88" as="geometry" />
        </mxCell>
        <mxCell id="aiHX-xgp03A9afXReRbh-8" value="+ id: Long" style="text;strokeColor=none;fillColor=none;align=left;verticalAlign=top;spacingLeft=4;spacingRight=4;overflow=hidden;rotatable=0;points=[[0,0.5],[1,0.5]];portConstraint=eastwest;" parent="aiHX-xgp03A9afXReRbh-7" vertex="1">
          <mxGeometry y="40" width="161.5" height="22" as="geometry" />
        </mxCell>
        <mxCell id="aiHX-xgp03A9afXReRbh-175" value="+ name: string" style="text;strokeColor=none;fillColor=none;align=left;verticalAlign=top;spacingLeft=4;spacingRight=4;overflow=hidden;rotatable=0;points=[[0,0.5],[1,0.5]];portConstraint=eastwest;whiteSpace=wrap;html=1;" parent="aiHX-xgp03A9afXReRbh-7" vertex="1">
          <mxGeometry y="62" width="161.5" height="26" as="geometry" />
        </mxCell>
        <mxCell id="aiHX-xgp03A9afXReRbh-11" value="Application" style="swimlane;fontStyle=1;align=center;verticalAlign=top;childLayout=stackLayout;horizontal=1;startSize=26;horizontalStack=0;resizeParent=1;resizeParentMax=0;resizeLast=0;collapsible=1;marginBottom=0;" parent="1" vertex="1">
          <mxGeometry x="270" y="1130" width="210" height="180" as="geometry" />
        </mxCell>
        <mxCell id="aiHX-xgp03A9afXReRbh-12" value="+ id: Long" style="text;strokeColor=none;fillColor=none;align=left;verticalAlign=top;spacingLeft=4;spacingRight=4;overflow=hidden;rotatable=0;points=[[0,0.5],[1,0.5]];portConstraint=eastwest;" parent="aiHX-xgp03A9afXReRbh-11" vertex="1">
          <mxGeometry y="26" width="210" height="26" as="geometry" />
        </mxCell>
        <mxCell id="aiHX-xgp03A9afXReRbh-190" value="+ ownerId: Long" style="text;strokeColor=none;fillColor=none;align=left;verticalAlign=top;spacingLeft=4;spacingRight=4;overflow=hidden;rotatable=0;points=[[0,0.5],[1,0.5]];portConstraint=eastwest;whiteSpace=wrap;html=1;" parent="aiHX-xgp03A9afXReRbh-11" vertex="1">
          <mxGeometry y="52" width="210" height="26" as="geometry" />
        </mxCell>
        <mxCell id="0i7GG34IuzNg3CLDuCly-63" value="+ env:String{DEV,TST,UAT,PRD}" style="text;strokeColor=none;fillColor=none;align=left;verticalAlign=top;spacingLeft=4;spacingRight=4;overflow=hidden;rotatable=0;points=[[0,0.5],[1,0.5]];portConstraint=eastwest;whiteSpace=wrap;html=1;" vertex="1" parent="aiHX-xgp03A9afXReRbh-11">
          <mxGeometry y="78" width="210" height="22" as="geometry" />
        </mxCell>
        <mxCell id="0i7GG34IuzNg3CLDuCly-64" value="+ name:String" style="text;strokeColor=none;fillColor=none;align=left;verticalAlign=top;spacingLeft=4;spacingRight=4;overflow=hidden;rotatable=0;points=[[0,0.5],[1,0.5]];portConstraint=eastwest;whiteSpace=wrap;html=1;" vertex="1" parent="aiHX-xgp03A9afXReRbh-11">
          <mxGeometry y="100" width="210" height="30" as="geometry" />
        </mxCell>
        <mxCell id="0i7GG34IuzNg3CLDuCly-47" value="&amp;nbsp;" style="text;strokeColor=none;fillColor=none;align=left;verticalAlign=top;spacingLeft=4;spacingRight=4;overflow=hidden;rotatable=0;points=[[0,0.5],[1,0.5]];portConstraint=eastwest;whiteSpace=wrap;html=1;" vertex="1" parent="aiHX-xgp03A9afXReRbh-11">
          <mxGeometry y="130" width="210" height="50" as="geometry" />
        </mxCell>
        <mxCell id="aiHX-xgp03A9afXReRbh-13" value="Module" style="swimlane;fontStyle=1;align=center;verticalAlign=top;childLayout=stackLayout;horizontal=1;startSize=26;horizontalStack=0;resizeParent=1;resizeParentMax=0;resizeLast=0;collapsible=1;marginBottom=0;" parent="1" vertex="1">
          <mxGeometry x="770" y="1190" width="160" height="52" as="geometry" />
        </mxCell>
        <mxCell id="aiHX-xgp03A9afXReRbh-14" value="+ id: Long" style="text;strokeColor=none;fillColor=none;align=left;verticalAlign=top;spacingLeft=4;spacingRight=4;overflow=hidden;rotatable=0;points=[[0,0.5],[1,0.5]];portConstraint=eastwest;" parent="aiHX-xgp03A9afXReRbh-13" vertex="1">
          <mxGeometry y="26" width="160" height="26" as="geometry" />
        </mxCell>
        <mxCell id="aiHX-xgp03A9afXReRbh-15" value="Button" style="swimlane;fontStyle=1;align=center;verticalAlign=top;childLayout=stackLayout;horizontal=1;startSize=26;horizontalStack=0;resizeParent=1;resizeParentMax=0;resizeLast=0;collapsible=1;marginBottom=0;" parent="1" vertex="1">
          <mxGeometry x="978.5" y="1190" width="160" height="52" as="geometry" />
        </mxCell>
        <mxCell id="aiHX-xgp03A9afXReRbh-16" value="+ id: Long" style="text;strokeColor=none;fillColor=none;align=left;verticalAlign=top;spacingLeft=4;spacingRight=4;overflow=hidden;rotatable=0;points=[[0,0.5],[1,0.5]];portConstraint=eastwest;" parent="aiHX-xgp03A9afXReRbh-15" vertex="1">
          <mxGeometry y="26" width="160" height="26" as="geometry" />
        </mxCell>
        <mxCell id="aiHX-xgp03A9afXReRbh-19" value="Assets" style="swimlane;fontStyle=1;align=center;verticalAlign=top;childLayout=stackLayout;horizontal=1;startSize=26;horizontalStack=0;resizeParent=1;resizeParentMax=0;resizeLast=0;collapsible=1;marginBottom=0;" parent="1" vertex="1">
          <mxGeometry x="170" y="1390" width="160" height="52" as="geometry" />
        </mxCell>
        <mxCell id="aiHX-xgp03A9afXReRbh-20" value="+ id: Long" style="text;strokeColor=none;fillColor=none;align=left;verticalAlign=top;spacingLeft=4;spacingRight=4;overflow=hidden;rotatable=0;points=[[0,0.5],[1,0.5]];portConstraint=eastwest;" parent="aiHX-xgp03A9afXReRbh-19" vertex="1">
          <mxGeometry y="26" width="160" height="26" as="geometry" />
        </mxCell>
        <mxCell id="aiHX-xgp03A9afXReRbh-21" value="CodeBlock" style="swimlane;fontStyle=1;align=center;verticalAlign=top;childLayout=stackLayout;horizontal=1;startSize=26;horizontalStack=0;resizeParent=1;resizeParentMax=0;resizeLast=0;collapsible=1;marginBottom=0;" parent="1" vertex="1">
          <mxGeometry x="580" y="1390" width="160" height="52" as="geometry" />
        </mxCell>
        <mxCell id="aiHX-xgp03A9afXReRbh-22" value="+ id: Long" style="text;strokeColor=none;fillColor=none;align=left;verticalAlign=top;spacingLeft=4;spacingRight=4;overflow=hidden;rotatable=0;points=[[0,0.5],[1,0.5]];portConstraint=eastwest;" parent="aiHX-xgp03A9afXReRbh-21" vertex="1">
          <mxGeometry y="26" width="160" height="26" as="geometry" />
        </mxCell>
        <mxCell id="aiHX-xgp03A9afXReRbh-23" value="I18n" style="swimlane;fontStyle=1;align=center;verticalAlign=top;childLayout=stackLayout;horizontal=1;startSize=26;horizontalStack=0;resizeParent=1;resizeParentMax=0;resizeLast=0;collapsible=1;marginBottom=0;" parent="1" vertex="1">
          <mxGeometry x="380" y="1390" width="160" height="52" as="geometry" />
        </mxCell>
        <mxCell id="aiHX-xgp03A9afXReRbh-24" value="+ id: Long" style="text;strokeColor=none;fillColor=none;align=left;verticalAlign=top;spacingLeft=4;spacingRight=4;overflow=hidden;rotatable=0;points=[[0,0.5],[1,0.5]];portConstraint=eastwest;" parent="aiHX-xgp03A9afXReRbh-23" vertex="1">
          <mxGeometry y="26" width="160" height="26" as="geometry" />
        </mxCell>
        <mxCell id="aiHX-xgp03A9afXReRbh-25" value="User" style="swimlane;fontStyle=1;align=center;verticalAlign=top;childLayout=stackLayout;horizontal=1;startSize=26;horizontalStack=0;resizeParent=1;resizeParentMax=0;resizeLast=0;collapsible=1;marginBottom=0;" parent="1" vertex="1">
          <mxGeometry x="10" y="312" width="160" height="52" as="geometry" />
        </mxCell>
        <mxCell id="aiHX-xgp03A9afXReRbh-26" value="+ id: Long" style="text;strokeColor=none;fillColor=none;align=left;verticalAlign=top;spacingLeft=4;spacingRight=4;overflow=hidden;rotatable=0;points=[[0,0.5],[1,0.5]];portConstraint=eastwest;" parent="aiHX-xgp03A9afXReRbh-25" vertex="1">
          <mxGeometry y="26" width="160" height="26" as="geometry" />
        </mxCell>
        <mxCell id="aiHX-xgp03A9afXReRbh-27" value="" style="endArrow=none;html=1;edgeStyle=orthogonalEdgeStyle;rounded=0;entryX=0;entryY=0.5;entryDx=0;entryDy=0;" parent="1" source="aiHX-xgp03A9afXReRbh-2" target="aiHX-xgp03A9afXReRbh-33" edge="1">
          <mxGeometry relative="1" as="geometry">
            <mxPoint x="30" y="330" as="sourcePoint" />
            <mxPoint x="280" y="69" as="targetPoint" />
          </mxGeometry>
        </mxCell>
        <mxCell id="aiHX-xgp03A9afXReRbh-28" value="1..1" style="edgeLabel;resizable=0;html=1;align=left;verticalAlign=bottom;" parent="aiHX-xgp03A9afXReRbh-27" connectable="0" vertex="1">
          <mxGeometry x="-1" relative="1" as="geometry" />
        </mxCell>
        <mxCell id="aiHX-xgp03A9afXReRbh-29" value="0..1" style="edgeLabel;resizable=0;html=1;align=right;verticalAlign=bottom;" parent="aiHX-xgp03A9afXReRbh-27" connectable="0" vertex="1">
          <mxGeometry x="1" relative="1" as="geometry" />
        </mxCell>
        <mxCell id="aiHX-xgp03A9afXReRbh-30" value="" style="endArrow=none;html=1;edgeStyle=orthogonalEdgeStyle;rounded=0;entryX=0;entryY=0.5;entryDx=0;entryDy=0;" parent="1" source="aiHX-xgp03A9afXReRbh-26" target="aiHX-xgp03A9afXReRbh-46" edge="1">
          <mxGeometry relative="1" as="geometry">
            <mxPoint x="100" y="370" as="sourcePoint" />
            <mxPoint x="320" y="349" as="targetPoint" />
            <Array as="points" />
          </mxGeometry>
        </mxCell>
        <mxCell id="aiHX-xgp03A9afXReRbh-31" value="1..1" style="edgeLabel;resizable=0;html=1;align=left;verticalAlign=bottom;" parent="aiHX-xgp03A9afXReRbh-30" connectable="0" vertex="1">
          <mxGeometry x="-1" relative="1" as="geometry" />
        </mxCell>
        <mxCell id="aiHX-xgp03A9afXReRbh-32" value="Org" style="swimlane;fontStyle=1;align=center;verticalAlign=top;childLayout=stackLayout;horizontal=1;startSize=26;horizontalStack=0;resizeParent=1;resizeParentMax=0;resizeLast=0;collapsible=1;marginBottom=0;" parent="1" vertex="1">
          <mxGeometry x="320" width="160" height="78" as="geometry" />
        </mxCell>
        <mxCell id="aiHX-xgp03A9afXReRbh-33" value="+ id: Long" style="text;strokeColor=none;fillColor=none;align=left;verticalAlign=top;spacingLeft=4;spacingRight=4;overflow=hidden;rotatable=0;points=[[0,0.5],[1,0.5]];portConstraint=eastwest;" parent="aiHX-xgp03A9afXReRbh-32" vertex="1">
          <mxGeometry y="26" width="160" height="26" as="geometry" />
        </mxCell>
        <mxCell id="aiHX-xgp03A9afXReRbh-34" value="+ ownerId: Long" style="text;strokeColor=none;fillColor=none;align=left;verticalAlign=top;spacingLeft=4;spacingRight=4;overflow=hidden;rotatable=0;points=[[0,0.5],[1,0.5]];portConstraint=eastwest;" parent="aiHX-xgp03A9afXReRbh-32" vertex="1">
          <mxGeometry y="52" width="160" height="26" as="geometry" />
        </mxCell>
        <mxCell id="aiHX-xgp03A9afXReRbh-35" value="" style="endArrow=none;html=1;edgeStyle=orthogonalEdgeStyle;rounded=0;entryX=0.75;entryY=0;entryDx=0;entryDy=0;exitX=1;exitY=0.25;exitDx=0;exitDy=0;" parent="1" source="aiHX-xgp03A9afXReRbh-32" target="aiHX-xgp03A9afXReRbh-32" edge="1">
          <mxGeometry relative="1" as="geometry">
            <mxPoint x="470" y="51" as="sourcePoint" />
            <mxPoint x="630" y="51" as="targetPoint" />
            <Array as="points">
              <mxPoint x="480" y="20" />
              <mxPoint x="500" y="20" />
              <mxPoint x="500" y="-39" />
              <mxPoint x="440" y="-39" />
            </Array>
          </mxGeometry>
        </mxCell>
        <mxCell id="aiHX-xgp03A9afXReRbh-36" value="parent: 0..1" style="edgeLabel;resizable=0;html=1;align=left;verticalAlign=bottom;" parent="aiHX-xgp03A9afXReRbh-35" connectable="0" vertex="1">
          <mxGeometry x="-1" relative="1" as="geometry">
            <mxPoint x="10" y="-10" as="offset" />
          </mxGeometry>
        </mxCell>
        <mxCell id="aiHX-xgp03A9afXReRbh-37" value="child:0..n" style="edgeLabel;resizable=0;html=1;align=right;verticalAlign=bottom;" parent="aiHX-xgp03A9afXReRbh-35" connectable="0" vertex="1">
          <mxGeometry x="1" relative="1" as="geometry" />
        </mxCell>
        <mxCell id="aiHX-xgp03A9afXReRbh-38" style="rounded=0;orthogonalLoop=1;jettySize=auto;html=1;exitX=0;exitY=1;exitDx=0;exitDy=0;exitPerimeter=0;dashed=1;dashPattern=8 8;" parent="1" source="aiHX-xgp03A9afXReRbh-39" edge="1">
          <mxGeometry relative="1" as="geometry">
            <mxPoint x="550" as="targetPoint" />
          </mxGeometry>
        </mxCell>
        <mxCell id="aiHX-xgp03A9afXReRbh-39" value="parent 为0时，为总公司" style="shape=note;whiteSpace=wrap;html=1;backgroundOutline=1;darkOpacity=0.05;fillColor=#fff2cc;strokeColor=#d6b656;" parent="1" vertex="1">
          <mxGeometry x="600" y="-130" width="70" height="100" as="geometry" />
        </mxCell>
        <mxCell id="aiHX-xgp03A9afXReRbh-40" value="OrgType" style="swimlane;fontStyle=1;align=center;verticalAlign=top;childLayout=stackLayout;horizontal=1;startSize=26;horizontalStack=0;resizeParent=1;resizeParentMax=0;resizeLast=0;collapsible=1;marginBottom=0;" parent="1" vertex="1">
          <mxGeometry x="715" y="-19" width="190" height="90" as="geometry" />
        </mxCell>
        <mxCell id="aiHX-xgp03A9afXReRbh-145" value="" style="endArrow=none;html=1;edgeStyle=orthogonalEdgeStyle;rounded=0;entryX=0.75;entryY=0;entryDx=0;entryDy=0;exitX=1.013;exitY=0.406;exitDx=0;exitDy=0;exitPerimeter=0;" parent="aiHX-xgp03A9afXReRbh-40" source="aiHX-xgp03A9afXReRbh-41" target="aiHX-xgp03A9afXReRbh-40" edge="1">
          <mxGeometry relative="1" as="geometry">
            <mxPoint x="185" y="49" as="sourcePoint" />
            <mxPoint x="345" y="49" as="targetPoint" />
            <Array as="points">
              <mxPoint x="225" y="52" />
              <mxPoint x="225" y="-51" />
              <mxPoint x="143" y="-51" />
            </Array>
          </mxGeometry>
        </mxCell>
        <mxCell id="aiHX-xgp03A9afXReRbh-146" value="0..1" style="edgeLabel;resizable=0;html=1;align=left;verticalAlign=bottom;" parent="aiHX-xgp03A9afXReRbh-145" connectable="0" vertex="1">
          <mxGeometry x="-1" relative="1" as="geometry">
            <mxPoint x="3" y="17" as="offset" />
          </mxGeometry>
        </mxCell>
        <mxCell id="aiHX-xgp03A9afXReRbh-147" value="0..n" style="edgeLabel;resizable=0;html=1;align=right;verticalAlign=bottom;" parent="aiHX-xgp03A9afXReRbh-145" connectable="0" vertex="1">
          <mxGeometry x="1" relative="1" as="geometry" />
        </mxCell>
        <mxCell id="aiHX-xgp03A9afXReRbh-41" value="+ id: Long&#xa;+name:String{COMPANY,TEAM,&#xa;DEPT,SUBCOMPANY}" style="text;strokeColor=none;fillColor=none;align=left;verticalAlign=top;spacingLeft=4;spacingRight=4;overflow=hidden;rotatable=0;points=[[0,0.5],[1,0.5]];portConstraint=eastwest;" parent="aiHX-xgp03A9afXReRbh-40" vertex="1">
          <mxGeometry y="26" width="190" height="64" as="geometry" />
        </mxCell>
        <mxCell id="aiHX-xgp03A9afXReRbh-42" value="" style="endArrow=none;html=1;edgeStyle=orthogonalEdgeStyle;rounded=0;exitX=0;exitY=0.5;exitDx=0;exitDy=0;entryX=1;entryY=0.5;entryDx=0;entryDy=0;" parent="1" source="aiHX-xgp03A9afXReRbh-41" target="aiHX-xgp03A9afXReRbh-33" edge="1">
          <mxGeometry relative="1" as="geometry">
            <mxPoint x="610" y="131" as="sourcePoint" />
            <mxPoint x="770" y="131" as="targetPoint" />
          </mxGeometry>
        </mxCell>
        <mxCell id="aiHX-xgp03A9afXReRbh-43" value="1..1" style="edgeLabel;resizable=0;html=1;align=left;verticalAlign=bottom;" parent="aiHX-xgp03A9afXReRbh-42" connectable="0" vertex="1">
          <mxGeometry x="-1" relative="1" as="geometry">
            <mxPoint x="-40" y="22" as="offset" />
          </mxGeometry>
        </mxCell>
        <mxCell id="aiHX-xgp03A9afXReRbh-44" value="0..n" style="edgeLabel;resizable=0;html=1;align=right;verticalAlign=bottom;" parent="aiHX-xgp03A9afXReRbh-42" connectable="0" vertex="1">
          <mxGeometry x="1" relative="1" as="geometry">
            <mxPoint x="60" y="1" as="offset" />
          </mxGeometry>
        </mxCell>
        <mxCell id="aiHX-xgp03A9afXReRbh-45" value="Employee" style="swimlane;fontStyle=1;align=center;verticalAlign=top;childLayout=stackLayout;horizontal=1;startSize=26;horizontalStack=0;resizeParent=1;resizeParentMax=0;resizeLast=0;collapsible=1;marginBottom=0;" parent="1" vertex="1">
          <mxGeometry x="320" y="312" width="160" height="86" as="geometry" />
        </mxCell>
        <mxCell id="aiHX-xgp03A9afXReRbh-46" value="+ id: Long" style="text;strokeColor=none;fillColor=none;align=left;verticalAlign=top;spacingLeft=4;spacingRight=4;overflow=hidden;rotatable=0;points=[[0,0.5],[1,0.5]];portConstraint=eastwest;" parent="aiHX-xgp03A9afXReRbh-45" vertex="1">
          <mxGeometry y="26" width="160" height="26" as="geometry" />
        </mxCell>
        <mxCell id="aiHX-xgp03A9afXReRbh-47" value="" style="line;strokeWidth=1;fillColor=none;align=left;verticalAlign=middle;spacingTop=-1;spacingLeft=3;spacingRight=3;rotatable=0;labelPosition=right;points=[];portConstraint=eastwest;strokeColor=inherit;" parent="aiHX-xgp03A9afXReRbh-45" vertex="1">
          <mxGeometry y="52" width="160" height="8" as="geometry" />
        </mxCell>
        <mxCell id="aiHX-xgp03A9afXReRbh-48" value="+ getLeader(): Employee" style="text;strokeColor=none;fillColor=none;align=left;verticalAlign=top;spacingLeft=4;spacingRight=4;overflow=hidden;rotatable=0;points=[[0,0.5],[1,0.5]];portConstraint=eastwest;" parent="aiHX-xgp03A9afXReRbh-45" vertex="1">
          <mxGeometry y="60" width="160" height="26" as="geometry" />
        </mxCell>
        <mxCell id="aiHX-xgp03A9afXReRbh-49" value="" style="endArrow=none;html=1;rounded=0;entryX=0.75;entryY=0;entryDx=0;entryDy=0;exitX=0.644;exitY=1.115;exitDx=0;exitDy=0;exitPerimeter=0;" parent="1" source="aiHX-xgp03A9afXReRbh-34" target="aiHX-xgp03A9afXReRbh-52" edge="1">
          <mxGeometry relative="1" as="geometry">
            <mxPoint x="330" y="90" as="sourcePoint" />
            <mxPoint x="350" y="150" as="targetPoint" />
          </mxGeometry>
        </mxCell>
        <mxCell id="aiHX-xgp03A9afXReRbh-50" value="1..1" style="edgeLabel;resizable=0;html=1;align=left;verticalAlign=bottom;" parent="aiHX-xgp03A9afXReRbh-49" connectable="0" vertex="1">
          <mxGeometry x="-1" relative="1" as="geometry">
            <mxPoint x="-23" y="29" as="offset" />
          </mxGeometry>
        </mxCell>
        <mxCell id="aiHX-xgp03A9afXReRbh-51" value="0..n" style="edgeLabel;resizable=0;html=1;align=right;verticalAlign=bottom;" parent="aiHX-xgp03A9afXReRbh-49" connectable="0" vertex="1">
          <mxGeometry x="1" relative="1" as="geometry">
            <mxPoint y="-10" as="offset" />
          </mxGeometry>
        </mxCell>
        <mxCell id="aiHX-xgp03A9afXReRbh-52" value="OrgMember" style="swimlane;fontStyle=1;align=center;verticalAlign=top;childLayout=stackLayout;horizontal=1;startSize=26;horizontalStack=0;resizeParent=1;resizeParentMax=0;resizeLast=0;collapsible=1;marginBottom=0;" parent="1" vertex="1">
          <mxGeometry x="390" y="170.11" width="160" height="80" as="geometry" />
        </mxCell>
        <mxCell id="aiHX-xgp03A9afXReRbh-53" value="+ id: Long&#xa;+ orgId: Long&#xa;+ employeeId: Long" style="text;strokeColor=none;fillColor=none;align=left;verticalAlign=top;spacingLeft=4;spacingRight=4;overflow=hidden;rotatable=0;points=[[0,0.5],[1,0.5]];portConstraint=eastwest;" parent="aiHX-xgp03A9afXReRbh-52" vertex="1">
          <mxGeometry y="26" width="160" height="54" as="geometry" />
        </mxCell>
        <mxCell id="aiHX-xgp03A9afXReRbh-54" value="" style="endArrow=none;html=1;rounded=0;exitX=0.75;exitY=0;exitDx=0;exitDy=0;entryX=0.6;entryY=1.016;entryDx=0;entryDy=0;entryPerimeter=0;" parent="1" source="aiHX-xgp03A9afXReRbh-45" target="aiHX-xgp03A9afXReRbh-53" edge="1">
          <mxGeometry relative="1" as="geometry">
            <mxPoint x="300" y="260" as="sourcePoint" />
            <mxPoint x="460" y="260" as="targetPoint" />
          </mxGeometry>
        </mxCell>
        <mxCell id="aiHX-xgp03A9afXReRbh-55" value="1..1" style="edgeLabel;resizable=0;html=1;align=left;verticalAlign=bottom;" parent="aiHX-xgp03A9afXReRbh-54" connectable="0" vertex="1">
          <mxGeometry x="-1" relative="1" as="geometry">
            <mxPoint x="10" y="-2" as="offset" />
          </mxGeometry>
        </mxCell>
        <mxCell id="aiHX-xgp03A9afXReRbh-56" value="0..n" style="edgeLabel;resizable=0;html=1;align=right;verticalAlign=bottom;" parent="aiHX-xgp03A9afXReRbh-54" connectable="0" vertex="1">
          <mxGeometry x="1" relative="1" as="geometry">
            <mxPoint x="14" y="19" as="offset" />
          </mxGeometry>
        </mxCell>
        <mxCell id="aiHX-xgp03A9afXReRbh-57" value="0..n" style="edgeLabel;resizable=0;html=1;align=left;verticalAlign=bottom;" parent="1" connectable="0" vertex="1">
          <mxGeometry x="290" y="350" as="geometry" />
        </mxCell>
        <mxCell id="aiHX-xgp03A9afXReRbh-58" value="EmployeeRole" style="swimlane;fontStyle=1;align=center;verticalAlign=top;childLayout=stackLayout;horizontal=1;startSize=26;horizontalStack=0;resizeParent=1;resizeParentMax=0;resizeLast=0;collapsible=1;marginBottom=0;" parent="1" vertex="1">
          <mxGeometry x="570" y="312" width="160" height="52" as="geometry" />
        </mxCell>
        <mxCell id="aiHX-xgp03A9afXReRbh-59" value="+ id: Long" style="text;strokeColor=none;fillColor=none;align=left;verticalAlign=top;spacingLeft=4;spacingRight=4;overflow=hidden;rotatable=0;points=[[0,0.5],[1,0.5]];portConstraint=eastwest;" parent="aiHX-xgp03A9afXReRbh-58" vertex="1">
          <mxGeometry y="26" width="160" height="26" as="geometry" />
        </mxCell>
        <mxCell id="aiHX-xgp03A9afXReRbh-60" value="" style="endArrow=none;html=1;edgeStyle=orthogonalEdgeStyle;rounded=0;exitX=1;exitY=0.5;exitDx=0;exitDy=0;entryX=0;entryY=0.5;entryDx=0;entryDy=0;" parent="1" source="aiHX-xgp03A9afXReRbh-46" target="aiHX-xgp03A9afXReRbh-59" edge="1">
          <mxGeometry relative="1" as="geometry">
            <mxPoint x="460" y="480" as="sourcePoint" />
            <mxPoint x="620" y="480" as="targetPoint" />
          </mxGeometry>
        </mxCell>
        <mxCell id="aiHX-xgp03A9afXReRbh-61" value="1..1" style="edgeLabel;resizable=0;html=1;align=left;verticalAlign=bottom;" parent="aiHX-xgp03A9afXReRbh-60" connectable="0" vertex="1">
          <mxGeometry x="-1" relative="1" as="geometry">
            <mxPoint x="10" as="offset" />
          </mxGeometry>
        </mxCell>
        <mxCell id="aiHX-xgp03A9afXReRbh-62" value="0..n" style="edgeLabel;resizable=0;html=1;align=right;verticalAlign=bottom;" parent="aiHX-xgp03A9afXReRbh-60" connectable="0" vertex="1">
          <mxGeometry x="1" relative="1" as="geometry" />
        </mxCell>
        <mxCell id="aiHX-xgp03A9afXReRbh-63" value="" style="endArrow=none;html=1;edgeStyle=orthogonalEdgeStyle;rounded=0;exitX=0;exitY=0.5;exitDx=0;exitDy=0;entryX=1;entryY=0.5;entryDx=0;entryDy=0;" parent="1" source="aiHX-xgp03A9afXReRbh-6" target="aiHX-xgp03A9afXReRbh-59" edge="1">
          <mxGeometry relative="1" as="geometry">
            <mxPoint x="690" y="480" as="sourcePoint" />
            <mxPoint x="850" y="480" as="targetPoint" />
          </mxGeometry>
        </mxCell>
        <mxCell id="aiHX-xgp03A9afXReRbh-64" value="1..1" style="edgeLabel;resizable=0;html=1;align=left;verticalAlign=bottom;" parent="aiHX-xgp03A9afXReRbh-63" connectable="0" vertex="1">
          <mxGeometry x="-1" relative="1" as="geometry">
            <mxPoint x="-37" as="offset" />
          </mxGeometry>
        </mxCell>
        <mxCell id="aiHX-xgp03A9afXReRbh-65" value="n..0" style="edgeLabel;resizable=0;html=1;align=right;verticalAlign=bottom;" parent="aiHX-xgp03A9afXReRbh-63" connectable="0" vertex="1">
          <mxGeometry x="1" relative="1" as="geometry">
            <mxPoint x="30" as="offset" />
          </mxGeometry>
        </mxCell>
        <mxCell id="aiHX-xgp03A9afXReRbh-66" style="rounded=0;orthogonalLoop=1;jettySize=auto;html=1;exitX=0;exitY=1;exitDx=0;exitDy=0;exitPerimeter=0;dashed=1;dashPattern=8 8;entryX=0.5;entryY=0;entryDx=0;entryDy=0;" parent="1" source="aiHX-xgp03A9afXReRbh-67" target="aiHX-xgp03A9afXReRbh-1" edge="1">
          <mxGeometry relative="1" as="geometry">
            <mxPoint x="30" y="-40" as="targetPoint" />
          </mxGeometry>
        </mxCell>
        <mxCell id="aiHX-xgp03A9afXReRbh-67" value="每个实体都会和Tenant关联，为了简洁，不一一画出关联" style="shape=note;whiteSpace=wrap;html=1;backgroundOutline=1;darkOpacity=0.05;fillColor=#fff2cc;strokeColor=#d6b656;" parent="1" vertex="1">
          <mxGeometry x="-150" y="-270" width="120" height="130" as="geometry" />
        </mxCell>
        <mxCell id="aiHX-xgp03A9afXReRbh-68" value="" style="endArrow=none;html=1;rounded=0;entryX=0.927;entryY=0;entryDx=0;entryDy=0;entryPerimeter=0;" parent="1" target="aiHX-xgp03A9afXReRbh-73" edge="1">
          <mxGeometry relative="1" as="geometry">
            <mxPoint x="460" y="400" as="sourcePoint" />
            <mxPoint x="260" y="670" as="targetPoint" />
          </mxGeometry>
        </mxCell>
        <mxCell id="aiHX-xgp03A9afXReRbh-69" value="1..1" style="edgeLabel;resizable=0;html=1;align=left;verticalAlign=bottom;" parent="aiHX-xgp03A9afXReRbh-68" connectable="0" vertex="1">
          <mxGeometry x="-1" relative="1" as="geometry">
            <mxPoint y="22" as="offset" />
          </mxGeometry>
        </mxCell>
        <mxCell id="aiHX-xgp03A9afXReRbh-70" value="0..n" style="edgeLabel;resizable=0;html=1;align=right;verticalAlign=bottom;" parent="aiHX-xgp03A9afXReRbh-68" connectable="0" vertex="1">
          <mxGeometry x="1" relative="1" as="geometry" />
        </mxCell>
        <mxCell id="aiHX-xgp03A9afXReRbh-71" value="RoleAuthority" style="swimlane;fontStyle=1;align=center;verticalAlign=top;childLayout=stackLayout;horizontal=1;startSize=26;horizontalStack=0;resizeParent=1;resizeParentMax=0;resizeLast=0;collapsible=1;marginBottom=0;" parent="1" vertex="1">
          <mxGeometry x="827" y="470" width="160" height="52" as="geometry" />
        </mxCell>
        <mxCell id="aiHX-xgp03A9afXReRbh-72" value="+ id: Long" style="text;strokeColor=none;fillColor=none;align=left;verticalAlign=top;spacingLeft=4;spacingRight=4;overflow=hidden;rotatable=0;points=[[0,0.5],[1,0.5]];portConstraint=eastwest;" parent="aiHX-xgp03A9afXReRbh-71" vertex="1">
          <mxGeometry y="26" width="160" height="26" as="geometry" />
        </mxCell>
        <mxCell id="aiHX-xgp03A9afXReRbh-73" value="EmployeePost" style="swimlane;fontStyle=1;align=center;verticalAlign=top;childLayout=stackLayout;horizontal=1;startSize=26;horizontalStack=0;resizeParent=1;resizeParentMax=0;resizeLast=0;collapsible=1;marginBottom=0;" parent="1" vertex="1">
          <mxGeometry x="311.5" y="469" width="160" height="52" as="geometry" />
        </mxCell>
        <mxCell id="aiHX-xgp03A9afXReRbh-74" value="+ id: Long" style="text;strokeColor=none;fillColor=none;align=left;verticalAlign=top;spacingLeft=4;spacingRight=4;overflow=hidden;rotatable=0;points=[[0,0.5],[1,0.5]];portConstraint=eastwest;" parent="aiHX-xgp03A9afXReRbh-73" vertex="1">
          <mxGeometry y="26" width="160" height="26" as="geometry" />
        </mxCell>
        <mxCell id="aiHX-xgp03A9afXReRbh-75" value="" style="endArrow=none;html=1;edgeStyle=orthogonalEdgeStyle;rounded=0;exitX=0.5;exitY=0;exitDx=0;exitDy=0;entryX=0.5;entryY=0.962;entryDx=0;entryDy=0;entryPerimeter=0;" parent="1" source="aiHX-xgp03A9afXReRbh-3" target="aiHX-xgp03A9afXReRbh-74" edge="1">
          <mxGeometry relative="1" as="geometry">
            <mxPoint x="370" y="550" as="sourcePoint" />
            <mxPoint x="530" y="550" as="targetPoint" />
          </mxGeometry>
        </mxCell>
        <mxCell id="aiHX-xgp03A9afXReRbh-76" value="1..1" style="edgeLabel;resizable=0;html=1;align=left;verticalAlign=bottom;" parent="aiHX-xgp03A9afXReRbh-75" connectable="0" vertex="1">
          <mxGeometry x="-1" relative="1" as="geometry" />
        </mxCell>
        <mxCell id="aiHX-xgp03A9afXReRbh-77" value="0..n" style="edgeLabel;resizable=0;html=1;align=right;verticalAlign=bottom;" parent="aiHX-xgp03A9afXReRbh-75" connectable="0" vertex="1">
          <mxGeometry x="1" relative="1" as="geometry">
            <mxPoint y="30" as="offset" />
          </mxGeometry>
        </mxCell>
        <mxCell id="aiHX-xgp03A9afXReRbh-78" value="" style="endArrow=none;html=1;rounded=0;exitX=0.553;exitY=-0.038;exitDx=0;exitDy=0;exitPerimeter=0;" parent="1" source="aiHX-xgp03A9afXReRbh-7" target="aiHX-xgp03A9afXReRbh-72" edge="1">
          <mxGeometry relative="1" as="geometry">
            <mxPoint x="902" y="575.99" as="sourcePoint" />
            <mxPoint x="907" y="520" as="targetPoint" />
          </mxGeometry>
        </mxCell>
        <mxCell id="aiHX-xgp03A9afXReRbh-79" value="1..1" style="edgeLabel;resizable=0;html=1;align=left;verticalAlign=bottom;" parent="aiHX-xgp03A9afXReRbh-78" connectable="0" vertex="1">
          <mxGeometry x="-1" relative="1" as="geometry" />
        </mxCell>
        <mxCell id="aiHX-xgp03A9afXReRbh-80" value="0..n" style="edgeLabel;resizable=0;html=1;align=right;verticalAlign=bottom;" parent="aiHX-xgp03A9afXReRbh-78" connectable="0" vertex="1">
          <mxGeometry x="1" relative="1" as="geometry">
            <mxPoint y="19" as="offset" />
          </mxGeometry>
        </mxCell>
        <mxCell id="aiHX-xgp03A9afXReRbh-81" value="" style="endArrow=none;html=1;rounded=0;exitX=0.581;exitY=1.038;exitDx=0;exitDy=0;exitPerimeter=0;entryX=0.581;entryY=0;entryDx=0;entryDy=0;entryPerimeter=0;" parent="1" source="aiHX-xgp03A9afXReRbh-6" target="aiHX-xgp03A9afXReRbh-71" edge="1">
          <mxGeometry relative="1" as="geometry">
            <mxPoint x="900" y="374" as="sourcePoint" />
            <mxPoint x="900.96" y="450" as="targetPoint" />
          </mxGeometry>
        </mxCell>
        <mxCell id="aiHX-xgp03A9afXReRbh-82" value="1..1" style="edgeLabel;resizable=0;html=1;align=left;verticalAlign=bottom;" parent="aiHX-xgp03A9afXReRbh-81" connectable="0" vertex="1">
          <mxGeometry x="-1" relative="1" as="geometry">
            <mxPoint y="16" as="offset" />
          </mxGeometry>
        </mxCell>
        <mxCell id="aiHX-xgp03A9afXReRbh-83" value="0..n" style="edgeLabel;resizable=0;html=1;align=right;verticalAlign=bottom;" parent="aiHX-xgp03A9afXReRbh-81" connectable="0" vertex="1">
          <mxGeometry x="1" relative="1" as="geometry" />
        </mxCell>
        <mxCell id="aiHX-xgp03A9afXReRbh-84" value="PostRole" style="swimlane;fontStyle=1;align=center;verticalAlign=top;childLayout=stackLayout;horizontal=1;startSize=26;horizontalStack=0;resizeParent=1;resizeParentMax=0;resizeLast=0;collapsible=1;marginBottom=0;" parent="1" vertex="1">
          <mxGeometry x="580" y="469" width="160" height="52" as="geometry" />
        </mxCell>
        <mxCell id="aiHX-xgp03A9afXReRbh-85" value="+ id: Long" style="text;strokeColor=none;fillColor=none;align=left;verticalAlign=top;spacingLeft=4;spacingRight=4;overflow=hidden;rotatable=0;points=[[0,0.5],[1,0.5]];portConstraint=eastwest;" parent="aiHX-xgp03A9afXReRbh-84" vertex="1">
          <mxGeometry y="26" width="160" height="26" as="geometry" />
        </mxCell>
        <mxCell id="aiHX-xgp03A9afXReRbh-86" value="" style="endArrow=none;html=1;rounded=0;exitX=1;exitY=0;exitDx=0;exitDy=0;entryX=0.005;entryY=1;entryDx=0;entryDy=0;entryPerimeter=0;" parent="1" source="aiHX-xgp03A9afXReRbh-3" target="aiHX-xgp03A9afXReRbh-85" edge="1">
          <mxGeometry relative="1" as="geometry">
            <mxPoint x="510" y="640" as="sourcePoint" />
            <mxPoint x="670" y="640" as="targetPoint" />
          </mxGeometry>
        </mxCell>
        <mxCell id="aiHX-xgp03A9afXReRbh-87" value="1..1" style="edgeLabel;resizable=0;html=1;align=left;verticalAlign=bottom;" parent="aiHX-xgp03A9afXReRbh-86" connectable="0" vertex="1">
          <mxGeometry x="-1" relative="1" as="geometry" />
        </mxCell>
        <mxCell id="aiHX-xgp03A9afXReRbh-88" value="0..n" style="edgeLabel;resizable=0;html=1;align=right;verticalAlign=bottom;" parent="aiHX-xgp03A9afXReRbh-86" connectable="0" vertex="1">
          <mxGeometry x="1" relative="1" as="geometry">
            <mxPoint y="24" as="offset" />
          </mxGeometry>
        </mxCell>
        <mxCell id="aiHX-xgp03A9afXReRbh-89" value="" style="endArrow=none;html=1;rounded=0;exitX=-0.001;exitY=0.923;exitDx=0;exitDy=0;exitPerimeter=0;entryX=1;entryY=0;entryDx=0;entryDy=0;" parent="1" source="aiHX-xgp03A9afXReRbh-6" target="aiHX-xgp03A9afXReRbh-84" edge="1">
          <mxGeometry relative="1" as="geometry">
            <mxPoint x="675.02" y="390" as="sourcePoint" />
            <mxPoint x="700" y="490" as="targetPoint" />
          </mxGeometry>
        </mxCell>
        <mxCell id="aiHX-xgp03A9afXReRbh-90" value="1..1" style="edgeLabel;resizable=0;html=1;align=left;verticalAlign=bottom;" parent="aiHX-xgp03A9afXReRbh-89" connectable="0" vertex="1">
          <mxGeometry x="-1" relative="1" as="geometry">
            <mxPoint x="-7" y="28" as="offset" />
          </mxGeometry>
        </mxCell>
        <mxCell id="aiHX-xgp03A9afXReRbh-91" value="0..n" style="edgeLabel;resizable=0;html=1;align=right;verticalAlign=bottom;" parent="aiHX-xgp03A9afXReRbh-89" connectable="0" vertex="1">
          <mxGeometry x="1" relative="1" as="geometry" />
        </mxCell>
        <mxCell id="aiHX-xgp03A9afXReRbh-92" style="rounded=0;orthogonalLoop=1;jettySize=auto;html=1;exitX=1;exitY=1;exitDx=0;exitDy=0;exitPerimeter=0;dashed=1;dashPattern=8 8;entryX=0;entryY=0.5;entryDx=0;entryDy=0;" parent="1" source="aiHX-xgp03A9afXReRbh-93" target="aiHX-xgp03A9afXReRbh-48" edge="1">
          <mxGeometry relative="1" as="geometry">
            <mxPoint x="10" y="650" as="targetPoint" />
          </mxGeometry>
        </mxCell>
        <mxCell id="aiHX-xgp03A9afXReRbh-93" value="getLeader() ,如果当前员工不是部门负责人，则取所在部门负责人，如果是部门负责人，则取上级部门负责人" style="shape=note;whiteSpace=wrap;html=1;backgroundOutline=1;darkOpacity=0.05;fillColor=#fff2cc;strokeColor=#d6b656;" parent="1" vertex="1">
          <mxGeometry x="20" y="410" width="120" height="170" as="geometry" />
        </mxCell>
        <mxCell id="aiHX-xgp03A9afXReRbh-94" value="" style="endArrow=none;html=1;rounded=0;exitX=0.061;exitY=0;exitDx=0;exitDy=0;entryX=0.074;entryY=1;entryDx=0;entryDy=0;entryPerimeter=0;exitPerimeter=0;" parent="1" source="aiHX-xgp03A9afXReRbh-45" target="aiHX-xgp03A9afXReRbh-34" edge="1">
          <mxGeometry relative="1" as="geometry">
            <mxPoint x="200" y="210" as="sourcePoint" />
            <mxPoint x="360" y="210" as="targetPoint" />
          </mxGeometry>
        </mxCell>
        <mxCell id="aiHX-xgp03A9afXReRbh-95" value="0..1" style="edgeLabel;resizable=0;html=1;align=left;verticalAlign=bottom;" parent="aiHX-xgp03A9afXReRbh-94" connectable="0" vertex="1">
          <mxGeometry x="-1" relative="1" as="geometry">
            <mxPoint x="-50" y="-12" as="offset" />
          </mxGeometry>
        </mxCell>
        <mxCell id="aiHX-xgp03A9afXReRbh-96" value="0..n" style="edgeLabel;resizable=0;html=1;align=right;verticalAlign=bottom;" parent="aiHX-xgp03A9afXReRbh-94" connectable="0" vertex="1">
          <mxGeometry x="1" relative="1" as="geometry">
            <mxPoint x="-10" y="25" as="offset" />
          </mxGeometry>
        </mxCell>
        <mxCell id="aiHX-xgp03A9afXReRbh-97" value="0..n" style="edgeLabel;resizable=0;html=1;align=right;verticalAlign=bottom;" parent="1" connectable="0" vertex="1">
          <mxGeometry x="494" y="492" as="geometry" />
        </mxCell>
        <mxCell id="aiHX-xgp03A9afXReRbh-98" value="Company" style="swimlane;fontStyle=1;align=center;verticalAlign=top;childLayout=stackLayout;horizontal=1;startSize=26;horizontalStack=0;resizeParent=1;resizeParentMax=0;resizeLast=0;collapsible=1;marginBottom=0;" parent="1" vertex="1">
          <mxGeometry x="280" y="-260" width="160" height="52" as="geometry" />
        </mxCell>
        <mxCell id="aiHX-xgp03A9afXReRbh-99" value="+ id: Long" style="text;strokeColor=none;fillColor=none;align=left;verticalAlign=top;spacingLeft=4;spacingRight=4;overflow=hidden;rotatable=0;points=[[0,0.5],[1,0.5]];portConstraint=eastwest;" parent="aiHX-xgp03A9afXReRbh-98" vertex="1">
          <mxGeometry y="26" width="160" height="26" as="geometry" />
        </mxCell>
        <mxCell id="aiHX-xgp03A9afXReRbh-100" value="SubCompany" style="swimlane;fontStyle=1;align=center;verticalAlign=top;childLayout=stackLayout;horizontal=1;startSize=26;horizontalStack=0;resizeParent=1;resizeParentMax=0;resizeLast=0;collapsible=1;marginBottom=0;" parent="1" vertex="1">
          <mxGeometry x="470" y="-260" width="160" height="52" as="geometry" />
        </mxCell>
        <mxCell id="aiHX-xgp03A9afXReRbh-101" value="+ id: Long" style="text;strokeColor=none;fillColor=none;align=left;verticalAlign=top;spacingLeft=4;spacingRight=4;overflow=hidden;rotatable=0;points=[[0,0.5],[1,0.5]];portConstraint=eastwest;" parent="aiHX-xgp03A9afXReRbh-100" vertex="1">
          <mxGeometry y="26" width="160" height="26" as="geometry" />
        </mxCell>
        <mxCell id="aiHX-xgp03A9afXReRbh-102" value="Dept" style="swimlane;fontStyle=1;align=center;verticalAlign=top;childLayout=stackLayout;horizontal=1;startSize=26;horizontalStack=0;resizeParent=1;resizeParentMax=0;resizeLast=0;collapsible=1;marginBottom=0;" parent="1" vertex="1">
          <mxGeometry x="730" y="-250" width="160" height="52" as="geometry" />
        </mxCell>
        <mxCell id="aiHX-xgp03A9afXReRbh-103" value="+ id: Long" style="text;strokeColor=none;fillColor=none;align=left;verticalAlign=top;spacingLeft=4;spacingRight=4;overflow=hidden;rotatable=0;points=[[0,0.5],[1,0.5]];portConstraint=eastwest;" parent="aiHX-xgp03A9afXReRbh-102" vertex="1">
          <mxGeometry y="26" width="160" height="26" as="geometry" />
        </mxCell>
        <mxCell id="aiHX-xgp03A9afXReRbh-104" value="Team" style="swimlane;fontStyle=1;align=center;verticalAlign=top;childLayout=stackLayout;horizontal=1;startSize=26;horizontalStack=0;resizeParent=1;resizeParentMax=0;resizeLast=0;collapsible=1;marginBottom=0;" parent="1" vertex="1">
          <mxGeometry x="950" y="-250" width="160" height="52" as="geometry" />
        </mxCell>
        <mxCell id="aiHX-xgp03A9afXReRbh-105" value="+ id: Long" style="text;strokeColor=none;fillColor=none;align=left;verticalAlign=top;spacingLeft=4;spacingRight=4;overflow=hidden;rotatable=0;points=[[0,0.5],[1,0.5]];portConstraint=eastwest;" parent="aiHX-xgp03A9afXReRbh-104" vertex="1">
          <mxGeometry y="26" width="160" height="26" as="geometry" />
        </mxCell>
        <mxCell id="aiHX-xgp03A9afXReRbh-106" value="" style="endArrow=block;endSize=16;endFill=0;html=1;rounded=0;entryX=0.25;entryY=0;entryDx=0;entryDy=0;exitX=0.275;exitY=1;exitDx=0;exitDy=0;exitPerimeter=0;" parent="1" source="aiHX-xgp03A9afXReRbh-99" target="aiHX-xgp03A9afXReRbh-32" edge="1">
          <mxGeometry width="160" relative="1" as="geometry">
            <mxPoint x="880" y="290" as="sourcePoint" />
            <mxPoint x="1040" y="290" as="targetPoint" />
            <Array as="points">
              <mxPoint x="324" y="-140" />
              <mxPoint x="360" y="-140" />
            </Array>
          </mxGeometry>
        </mxCell>
        <mxCell id="aiHX-xgp03A9afXReRbh-107" value="" style="endArrow=block;endSize=16;endFill=0;html=1;rounded=0;entryX=0.25;entryY=0;entryDx=0;entryDy=0;exitX=0.313;exitY=1.154;exitDx=0;exitDy=0;exitPerimeter=0;" parent="1" source="aiHX-xgp03A9afXReRbh-101" target="aiHX-xgp03A9afXReRbh-32" edge="1">
          <mxGeometry width="160" relative="1" as="geometry">
            <mxPoint x="710" y="208.11000000000013" as="sourcePoint" />
            <mxPoint x="490" y="49" as="targetPoint" />
            <Array as="points">
              <mxPoint x="520" y="-140" />
              <mxPoint x="360" y="-140" />
            </Array>
          </mxGeometry>
        </mxCell>
        <mxCell id="aiHX-xgp03A9afXReRbh-108" value="" style="endArrow=block;endSize=16;endFill=0;html=1;rounded=0;exitX=0.325;exitY=1.154;exitDx=0;exitDy=0;exitPerimeter=0;" parent="1" source="aiHX-xgp03A9afXReRbh-103" edge="1">
          <mxGeometry width="160" relative="1" as="geometry">
            <mxPoint x="580.0799999999999" y="-193.9960000000001" as="sourcePoint" />
            <mxPoint x="360" as="targetPoint" />
            <Array as="points">
              <mxPoint x="782" y="-140" />
              <mxPoint x="360" y="-140" />
            </Array>
          </mxGeometry>
        </mxCell>
        <mxCell id="aiHX-xgp03A9afXReRbh-109" value="" style="endArrow=block;endSize=16;endFill=0;html=1;rounded=0;entryX=0.25;entryY=0;entryDx=0;entryDy=0;exitX=0.419;exitY=1.115;exitDx=0;exitDy=0;exitPerimeter=0;" parent="1" source="aiHX-xgp03A9afXReRbh-105" target="aiHX-xgp03A9afXReRbh-32" edge="1">
          <mxGeometry width="160" relative="1" as="geometry">
            <mxPoint x="640" y="194.11000000000013" as="sourcePoint" />
            <mxPoint x="490" y="75" as="targetPoint" />
            <Array as="points">
              <mxPoint x="1017" y="-140" />
              <mxPoint x="360" y="-140" />
            </Array>
          </mxGeometry>
        </mxCell>
        <mxCell id="aiHX-xgp03A9afXReRbh-110" value="Authority" style="swimlane;fontStyle=1;align=center;verticalAlign=top;childLayout=stackLayout;horizontal=1;startSize=26;horizontalStack=0;resizeParent=1;resizeParentMax=0;resizeLast=0;collapsible=1;marginBottom=0;" parent="1" vertex="1">
          <mxGeometry x="780" y="1010" width="160" height="130" as="geometry" />
        </mxCell>
        <mxCell id="aiHX-xgp03A9afXReRbh-111" value="+ id:  Long" style="text;strokeColor=none;fillColor=none;align=left;verticalAlign=top;spacingLeft=4;spacingRight=4;overflow=hidden;rotatable=0;points=[[0,0.5],[1,0.5]];portConstraint=eastwest;" parent="aiHX-xgp03A9afXReRbh-110" vertex="1">
          <mxGeometry y="26" width="160" height="26" as="geometry" />
        </mxCell>
        <mxCell id="aiHX-xgp03A9afXReRbh-112" value="" style="endArrow=none;html=1;edgeStyle=orthogonalEdgeStyle;rounded=0;entryX=0.75;entryY=0;entryDx=0;entryDy=0;" parent="aiHX-xgp03A9afXReRbh-110" target="aiHX-xgp03A9afXReRbh-110" edge="1">
          <mxGeometry relative="1" as="geometry">
            <mxPoint x="160" y="40" as="sourcePoint" />
            <mxPoint x="320" y="40" as="targetPoint" />
            <Array as="points">
              <mxPoint x="160" y="30" />
              <mxPoint x="170" y="30" />
              <mxPoint x="170" y="-60" />
              <mxPoint x="120" y="-60" />
            </Array>
          </mxGeometry>
        </mxCell>
        <mxCell id="aiHX-xgp03A9afXReRbh-113" value="0..1" style="edgeLabel;resizable=0;html=1;align=left;verticalAlign=bottom;" parent="aiHX-xgp03A9afXReRbh-112" connectable="0" vertex="1">
          <mxGeometry x="-1" relative="1" as="geometry">
            <mxPoint x="10" y="-20" as="offset" />
          </mxGeometry>
        </mxCell>
        <mxCell id="aiHX-xgp03A9afXReRbh-114" value="0..n" style="edgeLabel;resizable=0;html=1;align=right;verticalAlign=bottom;" parent="aiHX-xgp03A9afXReRbh-112" connectable="0" vertex="1">
          <mxGeometry x="1" relative="1" as="geometry" />
        </mxCell>
        <mxCell id="0i7GG34IuzNg3CLDuCly-70" value="+ type: AuthorityType" style="text;strokeColor=none;fillColor=none;align=left;verticalAlign=top;spacingLeft=4;spacingRight=4;overflow=hidden;rotatable=0;points=[[0,0.5],[1,0.5]];portConstraint=eastwest;whiteSpace=wrap;html=1;" vertex="1" parent="aiHX-xgp03A9afXReRbh-110">
          <mxGeometry y="52" width="160" height="26" as="geometry" />
        </mxCell>
        <mxCell id="0i7GG34IuzNg3CLDuCly-71" value="+ applicationId: Long" style="text;strokeColor=none;fillColor=none;align=left;verticalAlign=top;spacingLeft=4;spacingRight=4;overflow=hidden;rotatable=0;points=[[0,0.5],[1,0.5]];portConstraint=eastwest;whiteSpace=wrap;html=1;" vertex="1" parent="aiHX-xgp03A9afXReRbh-110">
          <mxGeometry y="78" width="160" height="26" as="geometry" />
        </mxCell>
        <mxCell id="DTeephk2-nTVErUMiOyv-3" value="+ authCode: String" style="text;strokeColor=none;fillColor=none;align=left;verticalAlign=top;spacingLeft=4;spacingRight=4;overflow=hidden;rotatable=0;points=[[0,0.5],[1,0.5]];portConstraint=eastwest;whiteSpace=wrap;html=1;" parent="aiHX-xgp03A9afXReRbh-110" vertex="1">
          <mxGeometry y="104" width="160" height="26" as="geometry" />
        </mxCell>
        <mxCell id="aiHX-xgp03A9afXReRbh-115" style="edgeStyle=none;rounded=0;orthogonalLoop=1;jettySize=auto;html=1;exitX=0.5;exitY=0;exitDx=0;exitDy=0;endArrow=block;endFill=0;" parent="1" edge="1">
          <mxGeometry relative="1" as="geometry">
            <mxPoint x="850" y="1390" as="sourcePoint" />
            <mxPoint x="850" y="1390" as="targetPoint" />
          </mxGeometry>
        </mxCell>
        <mxCell id="aiHX-xgp03A9afXReRbh-117" value="" style="endArrow=block;endSize=16;endFill=0;html=1;rounded=0;exitX=0.5;exitY=0;exitDx=0;exitDy=0;entryX=0.444;entryY=1.077;entryDx=0;entryDy=0;entryPerimeter=0;" parent="1" source="aiHX-xgp03A9afXReRbh-13" edge="1" target="DTeephk2-nTVErUMiOyv-3">
          <mxGeometry width="160" relative="1" as="geometry">
            <mxPoint x="590" y="1200" as="sourcePoint" />
            <mxPoint x="850" y="1090" as="targetPoint" />
          </mxGeometry>
        </mxCell>
        <mxCell id="aiHX-xgp03A9afXReRbh-118" value="" style="endArrow=block;endSize=16;endFill=0;html=1;rounded=0;exitX=0.5;exitY=0;exitDx=0;exitDy=0;" parent="1" source="aiHX-xgp03A9afXReRbh-15" edge="1">
          <mxGeometry width="160" relative="1" as="geometry">
            <mxPoint x="800" y="1200" as="sourcePoint" />
            <mxPoint x="850" y="1140" as="targetPoint" />
            <Array as="points">
              <mxPoint x="1060" y="1170" />
              <mxPoint x="850" y="1170" />
              <mxPoint x="850" y="1140" />
            </Array>
          </mxGeometry>
        </mxCell>
        <mxCell id="aiHX-xgp03A9afXReRbh-122" value="" style="endArrow=none;html=1;edgeStyle=orthogonalEdgeStyle;rounded=0;entryX=0;entryY=0.5;entryDx=0;entryDy=0;exitX=1;exitY=0.5;exitDx=0;exitDy=0;" parent="1" source="aiHX-xgp03A9afXReRbh-12" target="aiHX-xgp03A9afXReRbh-111" edge="1">
          <mxGeometry relative="1" as="geometry">
            <mxPoint x="410" y="1320" as="sourcePoint" />
            <mxPoint x="540" y="1229" as="targetPoint" />
            <Array as="points">
              <mxPoint x="605" y="1169" />
              <mxPoint x="605" y="1170" />
              <mxPoint x="730" y="1170" />
              <mxPoint x="730" y="1049" />
            </Array>
          </mxGeometry>
        </mxCell>
        <mxCell id="aiHX-xgp03A9afXReRbh-123" value="0..1" style="edgeLabel;resizable=0;html=1;align=left;verticalAlign=bottom;" parent="aiHX-xgp03A9afXReRbh-122" connectable="0" vertex="1">
          <mxGeometry x="-1" relative="1" as="geometry" />
        </mxCell>
        <mxCell id="aiHX-xgp03A9afXReRbh-124" value="0..n" style="edgeLabel;resizable=0;html=1;align=right;verticalAlign=bottom;" parent="aiHX-xgp03A9afXReRbh-122" connectable="0" vertex="1">
          <mxGeometry x="1" relative="1" as="geometry" />
        </mxCell>
        <mxCell id="aiHX-xgp03A9afXReRbh-125" value="" style="endArrow=none;html=1;edgeStyle=orthogonalEdgeStyle;rounded=0;entryX=0.5;entryY=0;entryDx=0;entryDy=0;" parent="1" source="0i7GG34IuzNg3CLDuCly-47" target="aiHX-xgp03A9afXReRbh-23" edge="1">
          <mxGeometry relative="1" as="geometry">
            <mxPoint x="410" y="1320" as="sourcePoint" />
            <mxPoint x="640" y="1360" as="targetPoint" />
            <Array as="points">
              <mxPoint x="420" y="1340" />
              <mxPoint x="460" y="1340" />
            </Array>
          </mxGeometry>
        </mxCell>
        <mxCell id="aiHX-xgp03A9afXReRbh-126" value="1..1" style="edgeLabel;resizable=0;html=1;align=left;verticalAlign=bottom;" parent="aiHX-xgp03A9afXReRbh-125" connectable="0" vertex="1">
          <mxGeometry x="-1" relative="1" as="geometry">
            <mxPoint x="10" y="20" as="offset" />
          </mxGeometry>
        </mxCell>
        <mxCell id="aiHX-xgp03A9afXReRbh-127" value="0..n" style="edgeLabel;resizable=0;html=1;align=right;verticalAlign=bottom;" parent="aiHX-xgp03A9afXReRbh-125" connectable="0" vertex="1">
          <mxGeometry x="1" relative="1" as="geometry" />
        </mxCell>
        <mxCell id="aiHX-xgp03A9afXReRbh-128" value="" style="endArrow=none;html=1;edgeStyle=orthogonalEdgeStyle;rounded=0;exitX=0.995;exitY=0.422;exitDx=0;exitDy=0;entryX=0.5;entryY=0;entryDx=0;entryDy=0;exitPerimeter=0;" parent="1" source="0i7GG34IuzNg3CLDuCly-47" target="aiHX-xgp03A9afXReRbh-21" edge="1">
          <mxGeometry relative="1" as="geometry">
            <mxPoint x="360" y="1251.0120000000002" as="sourcePoint" />
            <mxPoint x="360" y="1400" as="targetPoint" />
            <Array as="points">
              <mxPoint x="479" y="1285" />
              <mxPoint x="660" y="1285" />
            </Array>
          </mxGeometry>
        </mxCell>
        <mxCell id="aiHX-xgp03A9afXReRbh-129" value="1..1" style="edgeLabel;resizable=0;html=1;align=left;verticalAlign=bottom;" parent="aiHX-xgp03A9afXReRbh-128" connectable="0" vertex="1">
          <mxGeometry x="-1" relative="1" as="geometry">
            <mxPoint x="30" y="106" as="offset" />
          </mxGeometry>
        </mxCell>
        <mxCell id="aiHX-xgp03A9afXReRbh-130" value="0..n" style="edgeLabel;resizable=0;html=1;align=right;verticalAlign=bottom;" parent="aiHX-xgp03A9afXReRbh-128" connectable="0" vertex="1">
          <mxGeometry x="1" relative="1" as="geometry" />
        </mxCell>
        <mxCell id="aiHX-xgp03A9afXReRbh-131" value="" style="endArrow=none;html=1;edgeStyle=orthogonalEdgeStyle;rounded=0;entryX=0.5;entryY=0;entryDx=0;entryDy=0;exitX=0.356;exitY=1.009;exitDx=0;exitDy=0;exitPerimeter=0;" parent="1" source="0i7GG34IuzNg3CLDuCly-47" target="aiHX-xgp03A9afXReRbh-19" edge="1">
          <mxGeometry relative="1" as="geometry">
            <mxPoint x="100" y="1300" as="sourcePoint" />
            <mxPoint x="320" y="1330" as="targetPoint" />
            <Array as="points">
              <mxPoint x="345" y="1360" />
              <mxPoint x="250" y="1360" />
            </Array>
          </mxGeometry>
        </mxCell>
        <mxCell id="aiHX-xgp03A9afXReRbh-132" value="1..1" style="edgeLabel;resizable=0;html=1;align=left;verticalAlign=bottom;" parent="aiHX-xgp03A9afXReRbh-131" connectable="0" vertex="1">
          <mxGeometry x="-1" relative="1" as="geometry">
            <mxPoint x="-40" y="21" as="offset" />
          </mxGeometry>
        </mxCell>
        <mxCell id="aiHX-xgp03A9afXReRbh-133" value="0..n" style="edgeLabel;resizable=0;html=1;align=right;verticalAlign=bottom;" parent="aiHX-xgp03A9afXReRbh-131" connectable="0" vertex="1">
          <mxGeometry x="1" relative="1" as="geometry" />
        </mxCell>
        <mxCell id="aiHX-xgp03A9afXReRbh-134" value="AuthorityType" style="swimlane;fontStyle=1;align=center;verticalAlign=top;childLayout=stackLayout;horizontal=1;startSize=26;horizontalStack=0;resizeParent=1;resizeParentMax=0;resizeLast=0;collapsible=1;marginBottom=0;" parent="1" vertex="1">
          <mxGeometry x="1170" y="1010" width="248.5" height="52" as="geometry" />
        </mxCell>
        <mxCell id="aiHX-xgp03A9afXReRbh-140" value="+ name: String{MODULE, BUTTON}" style="text;strokeColor=none;fillColor=none;align=left;verticalAlign=top;spacingLeft=4;spacingRight=4;overflow=hidden;rotatable=0;points=[[0,0.5],[1,0.5]];portConstraint=eastwest;whiteSpace=wrap;html=1;" parent="aiHX-xgp03A9afXReRbh-134" vertex="1">
          <mxGeometry y="26" width="248.5" height="26" as="geometry" />
        </mxCell>
        <mxCell id="aiHX-xgp03A9afXReRbh-137" value="" style="endArrow=none;html=1;edgeStyle=orthogonalEdgeStyle;rounded=0;entryX=1;entryY=0.5;entryDx=0;entryDy=0;exitX=0;exitY=0.5;exitDx=0;exitDy=0;" parent="1" target="aiHX-xgp03A9afXReRbh-111" edge="1">
          <mxGeometry relative="1" as="geometry">
            <mxPoint x="1170" y="1049" as="sourcePoint" />
            <mxPoint x="1150" y="1062" as="targetPoint" />
          </mxGeometry>
        </mxCell>
        <mxCell id="aiHX-xgp03A9afXReRbh-138" value="1..1" style="edgeLabel;resizable=0;html=1;align=left;verticalAlign=bottom;" parent="aiHX-xgp03A9afXReRbh-137" connectable="0" vertex="1">
          <mxGeometry x="-1" relative="1" as="geometry">
            <mxPoint x="-40" as="offset" />
          </mxGeometry>
        </mxCell>
        <mxCell id="aiHX-xgp03A9afXReRbh-139" value="0..n" style="edgeLabel;resizable=0;html=1;align=right;verticalAlign=bottom;" parent="aiHX-xgp03A9afXReRbh-137" connectable="0" vertex="1">
          <mxGeometry x="1" relative="1" as="geometry">
            <mxPoint x="30" y="21" as="offset" />
          </mxGeometry>
        </mxCell>
        <mxCell id="aiHX-xgp03A9afXReRbh-141" value="{&lt;br&gt;1. Module只能挂在App和Module下面&lt;br&gt;2. Button只能挂在APP和Module下&lt;br&gt;3. parentId为空的Module，在app下，code不可重复&lt;br&gt;4. ParentId不为空的Module，在parentId下code不能重复&lt;br&gt;}" style="shape=note;whiteSpace=wrap;html=1;backgroundOutline=1;darkOpacity=0.05;align=left;fillColor=#fff2cc;strokeColor=#d6b656;" parent="1" vertex="1">
          <mxGeometry x="1198.5" y="1140" width="220" height="140" as="geometry" />
        </mxCell>
        <mxCell id="aiHX-xgp03A9afXReRbh-142" value="" style="endArrow=none;dashed=1;html=1;rounded=0;exitX=0.573;exitY=1.192;exitDx=0;exitDy=0;exitPerimeter=0;" parent="1" source="aiHX-xgp03A9afXReRbh-140" target="aiHX-xgp03A9afXReRbh-141" edge="1">
          <mxGeometry width="50" height="50" relative="1" as="geometry">
            <mxPoint x="1400" y="1310" as="sourcePoint" />
            <mxPoint x="1450" y="1260" as="targetPoint" />
          </mxGeometry>
        </mxCell>
        <mxCell id="aiHX-xgp03A9afXReRbh-143" value="OrgType的关联代表约束关系，Template constraint {&lt;br&gt;1. SubCompany只能挂在Company下&lt;br&gt;2. Team只可以在Company，SubCompany，Dept下&lt;br&gt;3. Dept只能在Company和SubCompany下&lt;br&gt;}&amp;nbsp;" style="shape=note;whiteSpace=wrap;html=1;backgroundOutline=1;darkOpacity=0.05;align=left;fillColor=#fff2cc;strokeColor=#d6b656;" parent="1" vertex="1">
          <mxGeometry x="620" y="121.68" width="240" height="120" as="geometry" />
        </mxCell>
        <mxCell id="aiHX-xgp03A9afXReRbh-144" value="" style="endArrow=none;dashed=1;html=1;rounded=0;exitX=0.223;exitY=1.038;exitDx=0;exitDy=0;exitPerimeter=0;" parent="1" target="aiHX-xgp03A9afXReRbh-143" edge="1">
          <mxGeometry width="50" height="50" relative="1" as="geometry">
            <mxPoint x="740" y="71" as="sourcePoint" />
            <mxPoint x="993" y="242" as="targetPoint" />
          </mxGeometry>
        </mxCell>
        <mxCell id="aiHX-xgp03A9afXReRbh-156" value="" style="endArrow=none;dashed=1;html=1;rounded=0;exitX=0;exitY=0.5;exitDx=0;exitDy=0;entryX=0;entryY=0;entryDx=240;entryDy=75;entryPerimeter=0;" parent="1" source="aiHX-xgp03A9afXReRbh-157" target="aiHX-xgp03A9afXReRbh-143" edge="1">
          <mxGeometry width="50" height="50" relative="1" as="geometry">
            <mxPoint x="750" y="81" as="sourcePoint" />
            <mxPoint x="755" y="140" as="targetPoint" />
          </mxGeometry>
        </mxCell>
        <mxCell id="aiHX-xgp03A9afXReRbh-159" value="TEAM" style="html=1;whiteSpace=wrap;" parent="1" vertex="1">
          <mxGeometry x="1280" y="362.8226516220028" width="110" height="47.179125528913964" as="geometry" />
        </mxCell>
        <mxCell id="aiHX-xgp03A9afXReRbh-148" value="COMPANY" style="html=1;whiteSpace=wrap;" parent="1" vertex="1">
          <mxGeometry x="1070" y="-0.818053596614952" width="110" height="47.179125528913964" as="geometry" />
        </mxCell>
        <mxCell id="aiHX-xgp03A9afXReRbh-162" value="n" style="edgeStyle=orthogonalEdgeStyle;rounded=0;orthogonalLoop=1;jettySize=auto;html=1;entryX=0.5;entryY=0;entryDx=0;entryDy=0;" parent="1" source="aiHX-xgp03A9afXReRbh-149" target="aiHX-xgp03A9afXReRbh-150" edge="1">
          <mxGeometry x="0.6828" y="5" relative="1" as="geometry">
            <mxPoint as="offset" />
          </mxGeometry>
        </mxCell>
        <mxCell id="aiHX-xgp03A9afXReRbh-168" value="1" style="edgeLabel;html=1;align=center;verticalAlign=middle;resizable=0;points=[];" parent="aiHX-xgp03A9afXReRbh-162" vertex="1" connectable="0">
          <mxGeometry x="-0.2217" relative="1" as="geometry">
            <mxPoint x="15" y="-27" as="offset" />
          </mxGeometry>
        </mxCell>
        <mxCell id="aiHX-xgp03A9afXReRbh-163" value="1" style="rounded=0;orthogonalLoop=1;jettySize=auto;html=1;exitX=1;exitY=0.75;exitDx=0;exitDy=0;entryX=0.25;entryY=0;entryDx=0;entryDy=0;" parent="1" source="aiHX-xgp03A9afXReRbh-149" target="aiHX-xgp03A9afXReRbh-151" edge="1">
          <mxGeometry x="-0.8272" y="14" relative="1" as="geometry">
            <mxPoint x="-1" as="offset" />
          </mxGeometry>
        </mxCell>
        <mxCell id="aiHX-xgp03A9afXReRbh-167" value="n" style="edgeLabel;html=1;align=center;verticalAlign=middle;resizable=0;points=[];" parent="aiHX-xgp03A9afXReRbh-163" vertex="1" connectable="0">
          <mxGeometry x="0.5204" relative="1" as="geometry">
            <mxPoint x="28" y="8" as="offset" />
          </mxGeometry>
        </mxCell>
        <mxCell id="aiHX-xgp03A9afXReRbh-149" value="SUBCOMPANY" style="html=1;whiteSpace=wrap;" parent="1" vertex="1">
          <mxGeometry x="1070" y="102.98" width="110" height="37.02" as="geometry" />
        </mxCell>
        <mxCell id="aiHX-xgp03A9afXReRbh-150" value="TEAM" style="html=1;whiteSpace=wrap;" parent="1" vertex="1">
          <mxGeometry x="1070" y="235.07757404795487" width="110" height="47.179125528913964" as="geometry" />
        </mxCell>
        <mxCell id="aiHX-xgp03A9afXReRbh-164" value="1" style="rounded=0;orthogonalLoop=1;jettySize=auto;html=1;exitX=0.5;exitY=1;exitDx=0;exitDy=0;entryX=0.5;entryY=0;entryDx=0;entryDy=0;" parent="1" source="aiHX-xgp03A9afXReRbh-151" target="aiHX-xgp03A9afXReRbh-159" edge="1">
          <mxGeometry x="-0.6988" y="5" relative="1" as="geometry">
            <mxPoint as="offset" />
          </mxGeometry>
        </mxCell>
        <mxCell id="aiHX-xgp03A9afXReRbh-170" value="n" style="edgeLabel;html=1;align=center;verticalAlign=middle;resizable=0;points=[];" parent="aiHX-xgp03A9afXReRbh-164" vertex="1" connectable="0">
          <mxGeometry x="0.5887" y="-3" relative="1" as="geometry">
            <mxPoint x="8" y="3" as="offset" />
          </mxGeometry>
        </mxCell>
        <mxCell id="aiHX-xgp03A9afXReRbh-151" value="DEPT" style="html=1;whiteSpace=wrap;" parent="1" vertex="1">
          <mxGeometry x="1280" y="241.68265162200282" width="110" height="47.179125528913964" as="geometry" />
        </mxCell>
        <mxCell id="aiHX-xgp03A9afXReRbh-160" value="1" style="endArrow=classic;html=1;rounded=0;exitX=0.5;exitY=1;exitDx=0;exitDy=0;" parent="1" source="aiHX-xgp03A9afXReRbh-148" target="aiHX-xgp03A9afXReRbh-149" edge="1">
          <mxGeometry x="-0.5182" y="5" relative="1" as="geometry">
            <mxPoint x="1220" y="80" as="sourcePoint" />
            <mxPoint x="1320" y="80" as="targetPoint" />
            <mxPoint as="offset" />
          </mxGeometry>
        </mxCell>
        <mxCell id="aiHX-xgp03A9afXReRbh-166" value="n" style="edgeLabel;html=1;align=center;verticalAlign=middle;resizable=0;points=[];" parent="aiHX-xgp03A9afXReRbh-160" vertex="1" connectable="0">
          <mxGeometry x="0.4355" y="2" relative="1" as="geometry">
            <mxPoint x="3" y="3" as="offset" />
          </mxGeometry>
        </mxCell>
        <mxCell id="aiHX-xgp03A9afXReRbh-165" value="内存对象图引用" style="text;html=1;strokeColor=none;fillColor=none;align=center;verticalAlign=middle;whiteSpace=wrap;rounded=0;" parent="1" vertex="1">
          <mxGeometry x="1305" y="-4" width="95" height="24" as="geometry" />
        </mxCell>
        <mxCell id="aiHX-xgp03A9afXReRbh-172" value="&amp;lt;&amp;lt;MicroService&amp;gt;&amp;gt;&lt;br&gt;Application" style="text;strokeColor=none;fillColor=none;align=left;verticalAlign=top;spacingLeft=4;spacingRight=4;overflow=hidden;rotatable=0;points=[[0,0.5],[1,0.5]];portConstraint=eastwest;whiteSpace=wrap;html=1;" parent="1" vertex="1">
          <mxGeometry x="-120" y="820" width="100" height="40" as="geometry" />
        </mxCell>
        <mxCell id="aiHX-xgp03A9afXReRbh-174" value="&amp;lt;&amp;lt;MicroService&amp;gt;&amp;gt;&lt;br&gt;Org" style="text;strokeColor=none;fillColor=none;align=left;verticalAlign=top;spacingLeft=4;spacingRight=4;overflow=hidden;rotatable=0;points=[[0,0.5],[1,0.5]];portConstraint=eastwest;whiteSpace=wrap;html=1;" parent="1" vertex="1">
          <mxGeometry x="20" y="-320" width="100" height="40" as="geometry" />
        </mxCell>
        <mxCell id="aiHX-xgp03A9afXReRbh-176" value="&lt;&lt;Mapping From&gt;&gt;&#xa;Tenant" style="swimlane;fontStyle=1;align=center;verticalAlign=top;childLayout=stackLayout;horizontal=1;startSize=40;horizontalStack=0;resizeParent=1;resizeParentMax=0;resizeLast=0;collapsible=1;marginBottom=0;" parent="1" vertex="1">
          <mxGeometry x="20" y="900" width="160" height="66" as="geometry" />
        </mxCell>
        <mxCell id="aiHX-xgp03A9afXReRbh-177" value="+ id: Long" style="text;strokeColor=none;fillColor=none;align=left;verticalAlign=top;spacingLeft=4;spacingRight=4;overflow=hidden;rotatable=0;points=[[0,0.5],[1,0.5]];portConstraint=eastwest;" parent="aiHX-xgp03A9afXReRbh-176" vertex="1">
          <mxGeometry y="40" width="160" height="26" as="geometry" />
        </mxCell>
        <mxCell id="aiHX-xgp03A9afXReRbh-178" value="&lt;&lt;Mapping From&gt;&gt;&#xa;User" style="swimlane;fontStyle=1;align=center;verticalAlign=top;childLayout=stackLayout;horizontal=1;startSize=40;horizontalStack=0;resizeParent=1;resizeParentMax=0;resizeLast=0;collapsible=1;marginBottom=0;" parent="1" vertex="1">
          <mxGeometry x="220" y="900" width="160" height="66" as="geometry" />
        </mxCell>
        <mxCell id="aiHX-xgp03A9afXReRbh-179" value="+ id: Long" style="text;strokeColor=none;fillColor=none;align=left;verticalAlign=top;spacingLeft=4;spacingRight=4;overflow=hidden;rotatable=0;points=[[0,0.5],[1,0.5]];portConstraint=eastwest;" parent="aiHX-xgp03A9afXReRbh-178" vertex="1">
          <mxGeometry y="40" width="160" height="26" as="geometry" />
        </mxCell>
        <mxCell id="aiHX-xgp03A9afXReRbh-181" value="&lt;&lt;Mapping From&gt;&gt;&#xa;Employee" style="swimlane;fontStyle=1;align=center;verticalAlign=top;childLayout=stackLayout;horizontal=1;startSize=40;horizontalStack=0;resizeParent=1;resizeParentMax=0;resizeLast=0;collapsible=1;marginBottom=0;" parent="1" vertex="1">
          <mxGeometry x="40" y="1022" width="160" height="92" as="geometry" />
        </mxCell>
        <mxCell id="aiHX-xgp03A9afXReRbh-182" value="+ id: Long" style="text;strokeColor=none;fillColor=none;align=left;verticalAlign=top;spacingLeft=4;spacingRight=4;overflow=hidden;rotatable=0;points=[[0,0.5],[1,0.5]];portConstraint=eastwest;" parent="aiHX-xgp03A9afXReRbh-181" vertex="1">
          <mxGeometry y="40" width="160" height="26" as="geometry" />
        </mxCell>
        <mxCell id="aiHX-xgp03A9afXReRbh-183" value="+ name: String" style="text;strokeColor=none;fillColor=none;align=left;verticalAlign=top;spacingLeft=4;spacingRight=4;overflow=hidden;rotatable=0;points=[[0,0.5],[1,0.5]];portConstraint=eastwest;whiteSpace=wrap;html=1;" parent="aiHX-xgp03A9afXReRbh-181" vertex="1">
          <mxGeometry y="66" width="160" height="26" as="geometry" />
        </mxCell>
        <mxCell id="aiHX-xgp03A9afXReRbh-184" value="&lt;&lt;Mapping From&gt;&gt;&#xa;Team" style="swimlane;fontStyle=1;align=center;verticalAlign=top;childLayout=stackLayout;horizontal=1;startSize=40;horizontalStack=0;resizeParent=1;resizeParentMax=0;resizeLast=0;collapsible=1;marginBottom=0;" parent="1" vertex="1">
          <mxGeometry x="440" y="1010" width="160" height="92" as="geometry" />
        </mxCell>
        <mxCell id="aiHX-xgp03A9afXReRbh-185" value="+ id: Long" style="text;strokeColor=none;fillColor=none;align=left;verticalAlign=top;spacingLeft=4;spacingRight=4;overflow=hidden;rotatable=0;points=[[0,0.5],[1,0.5]];portConstraint=eastwest;" parent="aiHX-xgp03A9afXReRbh-184" vertex="1">
          <mxGeometry y="40" width="160" height="26" as="geometry" />
        </mxCell>
        <mxCell id="aiHX-xgp03A9afXReRbh-186" value="+ name: String" style="text;strokeColor=none;fillColor=none;align=left;verticalAlign=top;spacingLeft=4;spacingRight=4;overflow=hidden;rotatable=0;points=[[0,0.5],[1,0.5]];portConstraint=eastwest;whiteSpace=wrap;html=1;" parent="aiHX-xgp03A9afXReRbh-184" vertex="1">
          <mxGeometry y="66" width="160" height="26" as="geometry" />
        </mxCell>
        <mxCell id="aiHX-xgp03A9afXReRbh-187" value="" style="endArrow=none;html=1;edgeStyle=orthogonalEdgeStyle;rounded=0;exitX=1.017;exitY=-0.031;exitDx=0;exitDy=0;exitPerimeter=0;" parent="1" source="aiHX-xgp03A9afXReRbh-183" target="aiHX-xgp03A9afXReRbh-11" edge="1">
          <mxGeometry relative="1" as="geometry">
            <mxPoint x="250" y="1100" as="sourcePoint" />
            <mxPoint x="410" y="1100" as="targetPoint" />
            <Array as="points">
              <mxPoint x="350" y="1087" />
            </Array>
          </mxGeometry>
        </mxCell>
        <mxCell id="aiHX-xgp03A9afXReRbh-188" value="1..1" style="edgeLabel;resizable=0;html=1;align=left;verticalAlign=bottom;" parent="aiHX-xgp03A9afXReRbh-187" connectable="0" vertex="1">
          <mxGeometry x="-1" relative="1" as="geometry" />
        </mxCell>
        <mxCell id="aiHX-xgp03A9afXReRbh-189" value="0..n" style="edgeLabel;resizable=0;html=1;align=right;verticalAlign=bottom;" parent="aiHX-xgp03A9afXReRbh-187" connectable="0" vertex="1">
          <mxGeometry x="1" relative="1" as="geometry" />
        </mxCell>
        <mxCell id="aiHX-xgp03A9afXReRbh-191" value="" style="endArrow=none;html=1;edgeStyle=orthogonalEdgeStyle;rounded=0;exitX=0.011;exitY=0.794;exitDx=0;exitDy=0;entryX=0.75;entryY=0;entryDx=0;entryDy=0;exitPerimeter=0;" parent="1" source="aiHX-xgp03A9afXReRbh-185" target="aiHX-xgp03A9afXReRbh-11" edge="1">
          <mxGeometry relative="1" as="geometry">
            <mxPoint x="213" y="1097" as="sourcePoint" />
            <mxPoint x="360" y="1200" as="targetPoint" />
            <Array as="points">
              <mxPoint x="390" y="1071" />
            </Array>
          </mxGeometry>
        </mxCell>
        <mxCell id="aiHX-xgp03A9afXReRbh-192" value="1..1" style="edgeLabel;resizable=0;html=1;align=left;verticalAlign=bottom;" parent="aiHX-xgp03A9afXReRbh-191" connectable="0" vertex="1">
          <mxGeometry x="-1" relative="1" as="geometry">
            <mxPoint x="-30" as="offset" />
          </mxGeometry>
        </mxCell>
        <mxCell id="aiHX-xgp03A9afXReRbh-193" value="0..n" style="edgeLabel;resizable=0;html=1;align=right;verticalAlign=bottom;" parent="aiHX-xgp03A9afXReRbh-191" connectable="0" vertex="1">
          <mxGeometry x="1" relative="1" as="geometry" />
        </mxCell>
        <mxCell id="DTeephk2-nTVErUMiOyv-24" value="Create App" style="rounded=0;whiteSpace=wrap;html=1;" parent="1" vertex="1">
          <mxGeometry x="-188" y="1820" width="120" height="60" as="geometry" />
        </mxCell>
        <mxCell id="DTeephk2-nTVErUMiOyv-25" value="Configuration" style="rounded=0;whiteSpace=wrap;html=1;" parent="1" vertex="1">
          <mxGeometry x="-188" y="1890" width="120" height="60" as="geometry" />
        </mxCell>
        <mxCell id="DTeephk2-nTVErUMiOyv-26" value="Create Page" style="rounded=0;whiteSpace=wrap;html=1;" parent="1" vertex="1">
          <mxGeometry x="-188" y="1960" width="120" height="60" as="geometry" />
        </mxCell>
        <mxCell id="DTeephk2-nTVErUMiOyv-27" value="Export" style="shape=flexArrow;endArrow=classic;html=1;rounded=0;" parent="1" edge="1">
          <mxGeometry width="50" height="50" relative="1" as="geometry">
            <mxPoint x="2" y="1919.5" as="sourcePoint" />
            <mxPoint x="102" y="1920" as="targetPoint" />
          </mxGeometry>
        </mxCell>
        <mxCell id="DTeephk2-nTVErUMiOyv-28" value="Deploy Outputs" style="rounded=0;whiteSpace=wrap;html=1;" parent="1" vertex="1">
          <mxGeometry x="122" y="1930" width="120" height="60" as="geometry" />
        </mxCell>
        <mxCell id="DTeephk2-nTVErUMiOyv-29" value="Docker Image" style="rounded=0;whiteSpace=wrap;html=1;" parent="1" vertex="1">
          <mxGeometry x="122" y="1850" width="120" height="60" as="geometry" />
        </mxCell>
        <mxCell id="DTeephk2-nTVErUMiOyv-30" value="Deploy" style="shape=flexArrow;endArrow=classic;html=1;rounded=0;" parent="1" edge="1">
          <mxGeometry width="50" height="50" relative="1" as="geometry">
            <mxPoint x="292" y="1920" as="sourcePoint" />
            <mxPoint x="422" y="1920" as="targetPoint" />
          </mxGeometry>
        </mxCell>
        <mxCell id="DTeephk2-nTVErUMiOyv-31" value="K8s" style="rounded=0;whiteSpace=wrap;html=1;" parent="1" vertex="1">
          <mxGeometry x="442" y="1860" width="120" height="60" as="geometry" />
        </mxCell>
        <mxCell id="DTeephk2-nTVErUMiOyv-32" value="Web Container" style="rounded=0;whiteSpace=wrap;html=1;" parent="1" vertex="1">
          <mxGeometry x="442" y="1925" width="120" height="60" as="geometry" />
        </mxCell>
        <mxCell id="NGx8hzoizXmu8q-xxpEj-1" value="&lt;div&gt;&lt;br&gt;&lt;/div&gt;&lt;ul&gt;&lt;li&gt;BackendRuntime&lt;/li&gt;&lt;ul&gt;&lt;li&gt;App Config Data sql&lt;/li&gt;&lt;/ul&gt;&lt;li&gt;web-content&lt;/li&gt;&lt;ul&gt;&lt;li&gt;FrontendRuntime&lt;/li&gt;&lt;li&gt;assets&lt;/li&gt;&lt;ul&gt;&lt;li&gt;assets.js&lt;/li&gt;&lt;/ul&gt;&lt;li&gt;pages&lt;/li&gt;&lt;ul&gt;&lt;li&gt;pageA.js&lt;/li&gt;&lt;li&gt;I18n.js&lt;/li&gt;&lt;/ul&gt;&lt;/ul&gt;&lt;/ul&gt;" style="text;strokeColor=none;fillColor=#E1EAF5;html=1;whiteSpace=wrap;verticalAlign=middle;overflow=hidden;align=left;" parent="1" vertex="1">
          <mxGeometry x="89.5" y="2120" width="200" height="220" as="geometry" />
        </mxCell>
        <mxCell id="NGx8hzoizXmu8q-xxpEj-2" value="&lt;div&gt;&lt;br&gt;&lt;/div&gt;&lt;ul&gt;&lt;li&gt;Docker File&lt;/li&gt;&lt;li&gt;App Config Data(Base On Database)&lt;/li&gt;&lt;ul&gt;&lt;li&gt;app infos&lt;/li&gt;&lt;li&gt;module&lt;br&gt;&lt;/li&gt;&lt;li&gt;app configs&lt;/li&gt;&lt;li&gt;service api config&lt;/li&gt;&lt;/ul&gt;&lt;li&gt;Workspace Config (Local Cahe)&lt;/li&gt;&lt;li&gt;Git Config（Code repository）&lt;/li&gt;&lt;li&gt;Deploy Config&lt;/li&gt;&lt;ul&gt;&lt;li style=&quot;border-color: var(--border-color);&quot;&gt;K8s Config&lt;/li&gt;&lt;li style=&quot;border-color: var(--border-color);&quot;&gt;Web Deploye Config&lt;/li&gt;&lt;li style=&quot;border-color: var(--border-color);&quot;&gt;OSS Config&lt;/li&gt;&lt;/ul&gt;&lt;/ul&gt;" style="text;strokeColor=none;fillColor=#D4E1F5;html=1;whiteSpace=wrap;verticalAlign=middle;overflow=hidden;" parent="1" vertex="1">
          <mxGeometry x="-218" y="2120" width="210" height="280" as="geometry" />
        </mxCell>
        <mxCell id="NGx8hzoizXmu8q-xxpEj-3" value="Export" style="shape=flexArrow;endArrow=classic;html=1;rounded=0;" parent="1" edge="1">
          <mxGeometry width="50" height="50" relative="1" as="geometry">
            <mxPoint x="-8" y="2164" as="sourcePoint" />
            <mxPoint x="92" y="2164.5" as="targetPoint" />
          </mxGeometry>
        </mxCell>
        <mxCell id="NGx8hzoizXmu8q-xxpEj-4" value="" style="shape=flexArrow;endArrow=classic;html=1;rounded=0;" parent="1" edge="1">
          <mxGeometry width="50" height="50" relative="1" as="geometry">
            <mxPoint x="-118" y="2040" as="sourcePoint" />
            <mxPoint x="-118" y="2110" as="targetPoint" />
          </mxGeometry>
        </mxCell>
        <mxCell id="NGx8hzoizXmu8q-xxpEj-5" value="Persistent" style="edgeLabel;html=1;align=center;verticalAlign=middle;resizable=0;points=[];" parent="NGx8hzoizXmu8q-xxpEj-4" vertex="1" connectable="0">
          <mxGeometry x="-0.5143" relative="1" as="geometry">
            <mxPoint as="offset" />
          </mxGeometry>
        </mxCell>
        <mxCell id="NGx8hzoizXmu8q-xxpEj-6" value="" style="shape=flexArrow;endArrow=classic;html=1;rounded=0;" parent="1" edge="1">
          <mxGeometry width="50" height="50" relative="1" as="geometry">
            <mxPoint x="182" y="2020" as="sourcePoint" />
            <mxPoint x="182" y="2090" as="targetPoint" />
          </mxGeometry>
        </mxCell>
        <mxCell id="NGx8hzoizXmu8q-xxpEj-7" value="Output" style="edgeLabel;html=1;align=center;verticalAlign=middle;resizable=0;points=[];" parent="NGx8hzoizXmu8q-xxpEj-6" vertex="1" connectable="0">
          <mxGeometry x="-0.5143" relative="1" as="geometry">
            <mxPoint as="offset" />
          </mxGeometry>
        </mxCell>
        <mxCell id="NGx8hzoizXmu8q-xxpEj-11" value="Docker respository" style="rounded=0;whiteSpace=wrap;html=1;" parent="1" vertex="1">
          <mxGeometry x="112" y="2520" width="120" height="60" as="geometry" />
        </mxCell>
        <mxCell id="NGx8hzoizXmu8q-xxpEj-12" value="" style="shape=flexArrow;endArrow=classic;html=1;rounded=0;" parent="1" edge="1">
          <mxGeometry width="50" height="50" relative="1" as="geometry">
            <mxPoint x="182" y="2360" as="sourcePoint" />
            <mxPoint x="182.5" y="2510" as="targetPoint" />
          </mxGeometry>
        </mxCell>
        <mxCell id="NGx8hzoizXmu8q-xxpEj-13" value="Push By Docker file" style="edgeLabel;html=1;align=center;verticalAlign=middle;resizable=0;points=[];" parent="NGx8hzoizXmu8q-xxpEj-12" vertex="1" connectable="0">
          <mxGeometry x="-0.5143" relative="1" as="geometry">
            <mxPoint as="offset" />
          </mxGeometry>
        </mxCell>
        <mxCell id="NGx8hzoizXmu8q-xxpEj-16" value="Deploy by file uplaod" style="shape=flexArrow;endArrow=classic;html=1;rounded=0;" parent="1" edge="1">
          <mxGeometry width="50" height="50" relative="1" as="geometry">
            <mxPoint x="280.5" y="2160" as="sourcePoint" />
            <mxPoint x="432" y="2160" as="targetPoint" />
          </mxGeometry>
        </mxCell>
        <mxCell id="NGx8hzoizXmu8q-xxpEj-17" value="LCP&lt;br&gt;BackendRuntime" style="rounded=0;whiteSpace=wrap;html=1;" parent="1" vertex="1">
          <mxGeometry x="442" y="2135" width="120" height="60" as="geometry" />
        </mxCell>
        <mxCell id="NGx8hzoizXmu8q-xxpEj-18" value="Deploy&amp;nbsp;by k8s config" style="shape=flexArrow;endArrow=classic;html=1;rounded=0;" parent="1" edge="1">
          <mxGeometry width="50" height="50" relative="1" as="geometry">
            <mxPoint x="280.5" y="2549.5" as="sourcePoint" />
            <mxPoint x="432" y="2549.5" as="targetPoint" />
          </mxGeometry>
        </mxCell>
        <mxCell id="NGx8hzoizXmu8q-xxpEj-19" value="K8s" style="rounded=0;whiteSpace=wrap;html=1;" parent="1" vertex="1">
          <mxGeometry x="442" y="2520" width="120" height="60" as="geometry" />
        </mxCell>
        <mxCell id="NGx8hzoizXmu8q-xxpEj-20" value="LCP &lt;br&gt;FrontendRuntime" style="rounded=0;whiteSpace=wrap;html=1;" parent="1" vertex="1">
          <mxGeometry x="700.5" y="2135" width="120" height="60" as="geometry" />
        </mxCell>
        <mxCell id="NGx8hzoizXmu8q-xxpEj-21" value="1. Request page data&lt;br&gt;2. Basic api" style="endArrow=classic;html=1;rounded=0;exitX=0;exitY=0.5;exitDx=0;exitDy=0;entryX=1;entryY=0.5;entryDx=0;entryDy=0;dashed=1;align=left;" parent="1" source="NGx8hzoizXmu8q-xxpEj-20" target="NGx8hzoizXmu8q-xxpEj-17" edge="1">
          <mxGeometry x="0.75" y="-15" width="50" height="50" relative="1" as="geometry">
            <mxPoint x="682" y="2470" as="sourcePoint" />
            <mxPoint x="732" y="2420" as="targetPoint" />
            <mxPoint as="offset" />
          </mxGeometry>
        </mxCell>
        <mxCell id="NGx8hzoizXmu8q-xxpEj-22" value="service 1" style="rounded=0;whiteSpace=wrap;html=1;" parent="1" vertex="1">
          <mxGeometry x="980.5" y="2010" width="120" height="60" as="geometry" />
        </mxCell>
        <mxCell id="NGx8hzoizXmu8q-xxpEj-23" value="service 2" style="rounded=0;whiteSpace=wrap;html=1;" parent="1" vertex="1">
          <mxGeometry x="980.5" y="2140" width="120" height="60" as="geometry" />
        </mxCell>
        <mxCell id="NGx8hzoizXmu8q-xxpEj-24" value="service 3" style="rounded=0;whiteSpace=wrap;html=1;" parent="1" vertex="1">
          <mxGeometry x="980.5" y="2260" width="120" height="60" as="geometry" />
        </mxCell>
        <mxCell id="NGx8hzoizXmu8q-xxpEj-25" value="Business Api" style="endArrow=classic;html=1;rounded=0;exitX=1;exitY=0.5;exitDx=0;exitDy=0;entryX=0;entryY=0.25;entryDx=0;entryDy=0;dashed=1;align=left;" parent="1" source="NGx8hzoizXmu8q-xxpEj-20" target="NGx8hzoizXmu8q-xxpEj-22" edge="1">
          <mxGeometry width="50" height="50" relative="1" as="geometry">
            <mxPoint x="872" y="2180" as="sourcePoint" />
            <mxPoint x="872" y="1875" as="targetPoint" />
          </mxGeometry>
        </mxCell>
        <mxCell id="NGx8hzoizXmu8q-xxpEj-26" value="Business Api" style="endArrow=classic;html=1;rounded=0;exitX=1;exitY=0.5;exitDx=0;exitDy=0;entryX=0;entryY=0.5;entryDx=0;entryDy=0;dashed=1;align=left;" parent="1" source="NGx8hzoizXmu8q-xxpEj-20" target="NGx8hzoizXmu8q-xxpEj-23" edge="1">
          <mxGeometry width="50" height="50" relative="1" as="geometry">
            <mxPoint x="994" y="2172" as="sourcePoint" />
            <mxPoint x="1151" y="2035" as="targetPoint" />
          </mxGeometry>
        </mxCell>
        <mxCell id="NGx8hzoizXmu8q-xxpEj-27" value="Business Api" style="endArrow=classic;html=1;rounded=0;exitX=1;exitY=0.5;exitDx=0;exitDy=0;entryX=0;entryY=0.5;entryDx=0;entryDy=0;dashed=1;align=left;" parent="1" source="NGx8hzoizXmu8q-xxpEj-20" target="NGx8hzoizXmu8q-xxpEj-24" edge="1">
          <mxGeometry width="50" height="50" relative="1" as="geometry">
            <mxPoint x="992" y="2180" as="sourcePoint" />
            <mxPoint x="1151" y="2150" as="targetPoint" />
          </mxGeometry>
        </mxCell>
        <mxCell id="NGx8hzoizXmu8q-xxpEj-29" value="LCP&lt;br&gt;Runtime" style="text;html=1;strokeColor=none;fillColor=none;align=center;verticalAlign=middle;whiteSpace=wrap;rounded=0;" parent="1" vertex="1">
          <mxGeometry x="431.25" y="2070" width="60" height="30" as="geometry" />
        </mxCell>
        <mxCell id="CF5oaoLNDQAHsKBp2C5p-4" value="LCP&lt;br&gt;Dev" style="text;html=1;strokeColor=none;fillColor=none;align=center;verticalAlign=middle;whiteSpace=wrap;rounded=0;" parent="1" vertex="1">
          <mxGeometry x="-228" y="1780" width="60" height="30" as="geometry" />
        </mxCell>
        <mxCell id="CF5oaoLNDQAHsKBp2C5p-7" value="Deploy" style="text;html=1;strokeColor=none;fillColor=none;align=center;verticalAlign=middle;whiteSpace=wrap;rounded=0;" parent="1" vertex="1">
          <mxGeometry x="104.5" y="1775" width="60" height="30" as="geometry" />
        </mxCell>
        <mxCell id="0i7GG34IuzNg3CLDuCly-2" value="DictValue" style="swimlane;fontStyle=1;align=center;verticalAlign=top;childLayout=stackLayout;horizontal=1;startSize=26;horizontalStack=0;resizeParent=1;resizeParentMax=0;resizeLast=0;collapsible=1;marginBottom=0;whiteSpace=wrap;html=1;" vertex="1" parent="1">
          <mxGeometry x="1187.5" y="1470" width="160" height="112" as="geometry" />
        </mxCell>
        <mxCell id="0i7GG34IuzNg3CLDuCly-3" value="+ DictName: String" style="text;strokeColor=none;fillColor=none;align=left;verticalAlign=top;spacingLeft=4;spacingRight=4;overflow=hidden;rotatable=0;points=[[0,0.5],[1,0.5]];portConstraint=eastwest;whiteSpace=wrap;html=1;" vertex="1" parent="0i7GG34IuzNg3CLDuCly-2">
          <mxGeometry y="26" width="160" height="26" as="geometry" />
        </mxCell>
        <mxCell id="0i7GG34IuzNg3CLDuCly-4" value="" style="line;strokeWidth=1;fillColor=none;align=left;verticalAlign=middle;spacingTop=-1;spacingLeft=3;spacingRight=3;rotatable=0;labelPosition=right;points=[];portConstraint=eastwest;strokeColor=inherit;" vertex="1" parent="0i7GG34IuzNg3CLDuCly-2">
          <mxGeometry y="52" width="160" height="8" as="geometry" />
        </mxCell>
        <mxCell id="0i7GG34IuzNg3CLDuCly-30" value="+ name:String" style="text;strokeColor=none;fillColor=none;align=left;verticalAlign=top;spacingLeft=4;spacingRight=4;overflow=hidden;rotatable=0;points=[[0,0.5],[1,0.5]];portConstraint=eastwest;whiteSpace=wrap;html=1;" vertex="1" parent="0i7GG34IuzNg3CLDuCly-2">
          <mxGeometry y="60" width="160" height="26" as="geometry" />
        </mxCell>
        <mxCell id="0i7GG34IuzNg3CLDuCly-32" value="+ value:String" style="text;strokeColor=none;fillColor=none;align=left;verticalAlign=top;spacingLeft=4;spacingRight=4;overflow=hidden;rotatable=0;points=[[0,0.5],[1,0.5]];portConstraint=eastwest;whiteSpace=wrap;html=1;" vertex="1" parent="0i7GG34IuzNg3CLDuCly-2">
          <mxGeometry y="86" width="160" height="26" as="geometry" />
        </mxCell>
        <mxCell id="0i7GG34IuzNg3CLDuCly-6" value="Dict" style="swimlane;fontStyle=1;align=center;verticalAlign=top;childLayout=stackLayout;horizontal=1;startSize=26;horizontalStack=0;resizeParent=1;resizeParentMax=0;resizeLast=0;collapsible=1;marginBottom=0;whiteSpace=wrap;html=1;" vertex="1" parent="1">
          <mxGeometry x="820" y="1470" width="160" height="120" as="geometry" />
        </mxCell>
        <mxCell id="0i7GG34IuzNg3CLDuCly-24" value="" style="endArrow=none;html=1;edgeStyle=orthogonalEdgeStyle;rounded=0;entryX=1;entryY=0.25;entryDx=0;entryDy=0;exitX=0.5;exitY=0;exitDx=0;exitDy=0;" edge="1" parent="0i7GG34IuzNg3CLDuCly-6">
          <mxGeometry relative="1" as="geometry">
            <mxPoint x="87.5" as="sourcePoint" />
            <mxPoint x="167.5" y="21.5" as="targetPoint" />
            <Array as="points">
              <mxPoint x="88" y="-60" />
              <mxPoint x="225" y="-60" />
              <mxPoint x="225" y="22" />
            </Array>
          </mxGeometry>
        </mxCell>
        <mxCell id="0i7GG34IuzNg3CLDuCly-25" value="0..1" style="edgeLabel;resizable=0;html=1;align=left;verticalAlign=bottom;" connectable="0" vertex="1" parent="0i7GG34IuzNg3CLDuCly-24">
          <mxGeometry x="-1" relative="1" as="geometry" />
        </mxCell>
        <mxCell id="0i7GG34IuzNg3CLDuCly-26" value="0..n" style="edgeLabel;resizable=0;html=1;align=right;verticalAlign=bottom;" connectable="0" vertex="1" parent="0i7GG34IuzNg3CLDuCly-24">
          <mxGeometry x="1" relative="1" as="geometry">
            <mxPoint x="31" y="-1" as="offset" />
          </mxGeometry>
        </mxCell>
        <mxCell id="0i7GG34IuzNg3CLDuCly-7" value="+ type: DictType" style="text;strokeColor=none;fillColor=none;align=left;verticalAlign=top;spacingLeft=4;spacingRight=4;overflow=hidden;rotatable=0;points=[[0,0.5],[1,0.5]];portConstraint=eastwest;whiteSpace=wrap;html=1;" vertex="1" parent="0i7GG34IuzNg3CLDuCly-6">
          <mxGeometry y="26" width="160" height="34" as="geometry" />
        </mxCell>
        <mxCell id="0i7GG34IuzNg3CLDuCly-146" value="+ name: String" style="text;strokeColor=none;fillColor=none;align=left;verticalAlign=top;spacingLeft=4;spacingRight=4;overflow=hidden;rotatable=0;points=[[0,0.5],[1,0.5]];portConstraint=eastwest;whiteSpace=wrap;html=1;" vertex="1" parent="0i7GG34IuzNg3CLDuCly-6">
          <mxGeometry y="60" width="160" height="26" as="geometry" />
        </mxCell>
        <mxCell id="0i7GG34IuzNg3CLDuCly-31" value="+ isLeaf: int" style="text;strokeColor=none;fillColor=none;align=left;verticalAlign=top;spacingLeft=4;spacingRight=4;overflow=hidden;rotatable=0;points=[[0,0.5],[1,0.5]];portConstraint=eastwest;whiteSpace=wrap;html=1;" vertex="1" parent="0i7GG34IuzNg3CLDuCly-6">
          <mxGeometry y="86" width="160" height="26" as="geometry" />
        </mxCell>
        <mxCell id="0i7GG34IuzNg3CLDuCly-8" value="" style="line;strokeWidth=1;fillColor=none;align=left;verticalAlign=middle;spacingTop=-1;spacingLeft=3;spacingRight=3;rotatable=0;labelPosition=right;points=[];portConstraint=eastwest;strokeColor=inherit;" vertex="1" parent="0i7GG34IuzNg3CLDuCly-6">
          <mxGeometry y="112" width="160" height="8" as="geometry" />
        </mxCell>
        <mxCell id="0i7GG34IuzNg3CLDuCly-10" value="" style="endArrow=none;html=1;edgeStyle=orthogonalEdgeStyle;rounded=0;entryX=0;entryY=0.5;entryDx=0;entryDy=0;" edge="1" parent="1" target="0i7GG34IuzNg3CLDuCly-3">
          <mxGeometry relative="1" as="geometry">
            <mxPoint x="977.5" y="1510" as="sourcePoint" />
            <mxPoint x="1137.5" y="1510" as="targetPoint" />
          </mxGeometry>
        </mxCell>
        <mxCell id="0i7GG34IuzNg3CLDuCly-11" value="0..1" style="edgeLabel;resizable=0;html=1;align=left;verticalAlign=bottom;" connectable="0" vertex="1" parent="0i7GG34IuzNg3CLDuCly-10">
          <mxGeometry x="-1" relative="1" as="geometry" />
        </mxCell>
        <mxCell id="0i7GG34IuzNg3CLDuCly-12" value="0,,n" style="edgeLabel;resizable=0;html=1;align=right;verticalAlign=bottom;" connectable="0" vertex="1" parent="0i7GG34IuzNg3CLDuCly-10">
          <mxGeometry x="1" relative="1" as="geometry" />
        </mxCell>
        <mxCell id="0i7GG34IuzNg3CLDuCly-17" value="DictType" style="swimlane;fontStyle=1;align=center;verticalAlign=top;childLayout=stackLayout;horizontal=1;startSize=26;horizontalStack=0;resizeParent=1;resizeParentMax=0;resizeLast=0;collapsible=1;marginBottom=0;whiteSpace=wrap;html=1;" vertex="1" parent="1">
          <mxGeometry x="510" y="1550" width="160" height="60" as="geometry" />
        </mxCell>
        <mxCell id="0i7GG34IuzNg3CLDuCly-18" value="+ KV,KL" style="text;strokeColor=none;fillColor=none;align=left;verticalAlign=top;spacingLeft=4;spacingRight=4;overflow=hidden;rotatable=0;points=[[0,0.5],[1,0.5]];portConstraint=eastwest;whiteSpace=wrap;html=1;" vertex="1" parent="0i7GG34IuzNg3CLDuCly-17">
          <mxGeometry y="26" width="160" height="26" as="geometry" />
        </mxCell>
        <mxCell id="0i7GG34IuzNg3CLDuCly-19" value="" style="line;strokeWidth=1;fillColor=none;align=left;verticalAlign=middle;spacingTop=-1;spacingLeft=3;spacingRight=3;rotatable=0;labelPosition=right;points=[];portConstraint=eastwest;strokeColor=inherit;" vertex="1" parent="0i7GG34IuzNg3CLDuCly-17">
          <mxGeometry y="52" width="160" height="8" as="geometry" />
        </mxCell>
        <mxCell id="0i7GG34IuzNg3CLDuCly-27" value="" style="endArrow=none;html=1;edgeStyle=orthogonalEdgeStyle;rounded=0;entryX=0.25;entryY=0;entryDx=0;entryDy=0;" edge="1" parent="1" target="0i7GG34IuzNg3CLDuCly-6">
          <mxGeometry relative="1" as="geometry">
            <mxPoint x="480" y="1220" as="sourcePoint" />
            <mxPoint x="540" y="1510" as="targetPoint" />
            <Array as="points">
              <mxPoint x="480" y="1220" />
              <mxPoint x="760" y="1220" />
              <mxPoint x="760" y="1350" />
              <mxPoint x="860" y="1350" />
            </Array>
          </mxGeometry>
        </mxCell>
        <mxCell id="0i7GG34IuzNg3CLDuCly-28" value="0..1" style="edgeLabel;resizable=0;html=1;align=left;verticalAlign=bottom;" connectable="0" vertex="1" parent="0i7GG34IuzNg3CLDuCly-27">
          <mxGeometry x="-1" relative="1" as="geometry">
            <mxPoint x="6" y="65" as="offset" />
          </mxGeometry>
        </mxCell>
        <mxCell id="0i7GG34IuzNg3CLDuCly-29" value="0..n" style="edgeLabel;resizable=0;html=1;align=right;verticalAlign=bottom;" connectable="0" vertex="1" parent="0i7GG34IuzNg3CLDuCly-27">
          <mxGeometry x="1" relative="1" as="geometry">
            <mxPoint x="-10" y="-10" as="offset" />
          </mxGeometry>
        </mxCell>
        <mxCell id="0i7GG34IuzNg3CLDuCly-66" value="0..1" style="edgeLabel;html=1;align=center;verticalAlign=middle;resizable=0;points=[];" vertex="1" connectable="0" parent="0i7GG34IuzNg3CLDuCly-27">
          <mxGeometry x="-0.9651" y="3" relative="1" as="geometry">
            <mxPoint as="offset" />
          </mxGeometry>
        </mxCell>
        <mxCell id="0i7GG34IuzNg3CLDuCly-36" value="ApplicationOrg" style="swimlane;fontStyle=1;align=center;verticalAlign=top;childLayout=stackLayout;horizontal=1;startSize=26;horizontalStack=0;resizeParent=1;resizeParentMax=0;resizeLast=0;collapsible=1;marginBottom=0;whiteSpace=wrap;html=1;fillColor=#FFE7CC;" vertex="1" parent="1">
          <mxGeometry x="-195" y="1147" width="210" height="138" as="geometry" />
        </mxCell>
        <mxCell id="0i7GG34IuzNg3CLDuCly-37" value="+ id: Long" style="text;strokeColor=none;fillColor=none;align=left;verticalAlign=top;spacingLeft=4;spacingRight=4;overflow=hidden;rotatable=0;points=[[0,0.5],[1,0.5]];portConstraint=eastwest;whiteSpace=wrap;html=1;" vertex="1" parent="0i7GG34IuzNg3CLDuCly-36">
          <mxGeometry y="26" width="210" height="26" as="geometry" />
        </mxCell>
        <mxCell id="0i7GG34IuzNg3CLDuCly-40" value="+ companyId: Long" style="text;strokeColor=none;fillColor=none;align=left;verticalAlign=top;spacingLeft=4;spacingRight=4;overflow=hidden;rotatable=0;points=[[0,0.5],[1,0.5]];portConstraint=eastwest;whiteSpace=wrap;html=1;" vertex="1" parent="0i7GG34IuzNg3CLDuCly-36">
          <mxGeometry y="52" width="210" height="26" as="geometry" />
        </mxCell>
        <mxCell id="0i7GG34IuzNg3CLDuCly-42" value="+ ApplicationId: Long" style="text;strokeColor=none;fillColor=none;align=left;verticalAlign=top;spacingLeft=4;spacingRight=4;overflow=hidden;rotatable=0;points=[[0,0.5],[1,0.5]];portConstraint=eastwest;whiteSpace=wrap;html=1;" vertex="1" parent="0i7GG34IuzNg3CLDuCly-36">
          <mxGeometry y="78" width="210" height="26" as="geometry" />
        </mxCell>
        <mxCell id="0i7GG34IuzNg3CLDuCly-41" value="+ env: String{DEV,TST,UAT,PRD}" style="text;strokeColor=none;fillColor=none;align=left;verticalAlign=top;spacingLeft=4;spacingRight=4;overflow=hidden;rotatable=0;points=[[0,0.5],[1,0.5]];portConstraint=eastwest;whiteSpace=wrap;html=1;" vertex="1" parent="0i7GG34IuzNg3CLDuCly-36">
          <mxGeometry y="104" width="210" height="26" as="geometry" />
        </mxCell>
        <mxCell id="0i7GG34IuzNg3CLDuCly-38" value="" style="line;strokeWidth=1;fillColor=none;align=left;verticalAlign=middle;spacingTop=-1;spacingLeft=3;spacingRight=3;rotatable=0;labelPosition=right;points=[];portConstraint=eastwest;strokeColor=inherit;" vertex="1" parent="0i7GG34IuzNg3CLDuCly-36">
          <mxGeometry y="130" width="210" height="8" as="geometry" />
        </mxCell>
        <mxCell id="0i7GG34IuzNg3CLDuCly-48" value="" style="endArrow=diamondThin;endFill=0;endSize=24;html=1;rounded=0;entryX=0;entryY=0.5;entryDx=0;entryDy=0;exitX=1;exitY=0.5;exitDx=0;exitDy=0;" edge="1" parent="1" source="0i7GG34IuzNg3CLDuCly-42" target="0i7GG34IuzNg3CLDuCly-49">
          <mxGeometry width="160" relative="1" as="geometry">
            <mxPoint x="10" y="1230" as="sourcePoint" />
            <mxPoint x="170" y="1230" as="targetPoint" />
          </mxGeometry>
        </mxCell>
        <mxCell id="0i7GG34IuzNg3CLDuCly-51" value="0...1" style="edgeLabel;html=1;align=center;verticalAlign=middle;resizable=0;points=[];" vertex="1" connectable="0" parent="0i7GG34IuzNg3CLDuCly-48">
          <mxGeometry x="-0.8154" y="-2" relative="1" as="geometry">
            <mxPoint y="-15" as="offset" />
          </mxGeometry>
        </mxCell>
        <mxCell id="0i7GG34IuzNg3CLDuCly-49" value=":env" style="html=1;whiteSpace=wrap;" vertex="1" parent="1">
          <mxGeometry x="225" y="1220" width="45" height="31" as="geometry" />
        </mxCell>
        <mxCell id="0i7GG34IuzNg3CLDuCly-54" value="ApplicationRole" style="swimlane;fontStyle=1;align=center;verticalAlign=top;childLayout=stackLayout;horizontal=1;startSize=26;horizontalStack=0;resizeParent=1;resizeParentMax=0;resizeLast=0;collapsible=1;marginBottom=0;whiteSpace=wrap;html=1;fillColor=#FFE7CC;" vertex="1" parent="1">
          <mxGeometry x="-195" y="1320" width="210" height="138" as="geometry" />
        </mxCell>
        <mxCell id="0i7GG34IuzNg3CLDuCly-55" value="+ id: Long" style="text;strokeColor=none;fillColor=none;align=left;verticalAlign=top;spacingLeft=4;spacingRight=4;overflow=hidden;rotatable=0;points=[[0,0.5],[1,0.5]];portConstraint=eastwest;whiteSpace=wrap;html=1;" vertex="1" parent="0i7GG34IuzNg3CLDuCly-54">
          <mxGeometry y="26" width="210" height="26" as="geometry" />
        </mxCell>
        <mxCell id="0i7GG34IuzNg3CLDuCly-56" value="+ roleId: Long" style="text;strokeColor=none;fillColor=none;align=left;verticalAlign=top;spacingLeft=4;spacingRight=4;overflow=hidden;rotatable=0;points=[[0,0.5],[1,0.5]];portConstraint=eastwest;whiteSpace=wrap;html=1;" vertex="1" parent="0i7GG34IuzNg3CLDuCly-54">
          <mxGeometry y="52" width="210" height="26" as="geometry" />
        </mxCell>
        <mxCell id="0i7GG34IuzNg3CLDuCly-57" value="+ ApplicationId: Long" style="text;strokeColor=none;fillColor=none;align=left;verticalAlign=top;spacingLeft=4;spacingRight=4;overflow=hidden;rotatable=0;points=[[0,0.5],[1,0.5]];portConstraint=eastwest;whiteSpace=wrap;html=1;" vertex="1" parent="0i7GG34IuzNg3CLDuCly-54">
          <mxGeometry y="78" width="210" height="26" as="geometry" />
        </mxCell>
        <mxCell id="0i7GG34IuzNg3CLDuCly-58" value="+ env: String{DEV,TEST,UAT,PRD}" style="text;strokeColor=none;fillColor=none;align=left;verticalAlign=top;spacingLeft=4;spacingRight=4;overflow=hidden;rotatable=0;points=[[0,0.5],[1,0.5]];portConstraint=eastwest;whiteSpace=wrap;html=1;" vertex="1" parent="0i7GG34IuzNg3CLDuCly-54">
          <mxGeometry y="104" width="210" height="26" as="geometry" />
        </mxCell>
        <mxCell id="0i7GG34IuzNg3CLDuCly-59" value="" style="line;strokeWidth=1;fillColor=none;align=left;verticalAlign=middle;spacingTop=-1;spacingLeft=3;spacingRight=3;rotatable=0;labelPosition=right;points=[];portConstraint=eastwest;strokeColor=inherit;" vertex="1" parent="0i7GG34IuzNg3CLDuCly-54">
          <mxGeometry y="130" width="210" height="8" as="geometry" />
        </mxCell>
        <mxCell id="0i7GG34IuzNg3CLDuCly-60" value=":env" style="html=1;whiteSpace=wrap;" vertex="1" parent="1">
          <mxGeometry x="225" y="1270" width="45" height="31" as="geometry" />
        </mxCell>
        <mxCell id="0i7GG34IuzNg3CLDuCly-61" value="" style="endArrow=diamondThin;endFill=0;endSize=24;html=1;rounded=0;entryX=0;entryY=0.5;entryDx=0;entryDy=0;exitX=1;exitY=0.5;exitDx=0;exitDy=0;" edge="1" parent="1" source="0i7GG34IuzNg3CLDuCly-56">
          <mxGeometry width="160" relative="1" as="geometry">
            <mxPoint x="15" y="1286.5" as="sourcePoint" />
            <mxPoint x="225" y="1284.5" as="targetPoint" />
            <Array as="points">
              <mxPoint x="100" y="1385" />
              <mxPoint x="100" y="1290" />
            </Array>
          </mxGeometry>
        </mxCell>
        <mxCell id="0i7GG34IuzNg3CLDuCly-62" value="0...1" style="edgeLabel;html=1;align=center;verticalAlign=middle;resizable=0;points=[];" vertex="1" connectable="0" parent="0i7GG34IuzNg3CLDuCly-61">
          <mxGeometry x="-0.8154" y="-2" relative="1" as="geometry">
            <mxPoint y="-15" as="offset" />
          </mxGeometry>
        </mxCell>
        <mxCell id="0i7GG34IuzNg3CLDuCly-69" style="edgeStyle=orthogonalEdgeStyle;rounded=0;orthogonalLoop=1;jettySize=auto;html=1;entryX=0;entryY=0.5;entryDx=0;entryDy=0;dashed=1;" edge="1" parent="1" source="0i7GG34IuzNg3CLDuCly-68" target="aiHX-xgp03A9afXReRbh-12">
          <mxGeometry relative="1" as="geometry">
            <Array as="points">
              <mxPoint x="-90" y="1130" />
              <mxPoint x="150" y="1130" />
              <mxPoint x="150" y="1169" />
            </Array>
          </mxGeometry>
        </mxCell>
        <mxCell id="0i7GG34IuzNg3CLDuCly-68" value="Name + env 不能重复" style="shape=note;whiteSpace=wrap;html=1;backgroundOutline=1;darkOpacity=0.05;fillColor=#fff2cc;strokeColor=#d6b656;" vertex="1" parent="1">
          <mxGeometry x="-150" y="940" width="120" height="170" as="geometry" />
        </mxCell>
        <mxCell id="0i7GG34IuzNg3CLDuCly-72" value="TST/UAT/PRD" style="text;html=1;strokeColor=none;fillColor=none;align=center;verticalAlign=middle;whiteSpace=wrap;rounded=0;" vertex="1" parent="1">
          <mxGeometry x="122" y="1810" width="95" height="30" as="geometry" />
        </mxCell>
        <mxCell id="0i7GG34IuzNg3CLDuCly-73" value="TST/UAT/PRD" style="text;html=1;strokeColor=none;fillColor=none;align=center;verticalAlign=middle;whiteSpace=wrap;rounded=0;" vertex="1" parent="1">
          <mxGeometry x="422.5" y="1835" width="95" height="30" as="geometry" />
        </mxCell>
        <mxCell id="0i7GG34IuzNg3CLDuCly-74" value="Online Preview by http parameter（applicationId=?&amp;amp;&lt;br&gt;evn=TST/UAT/PRD）" style="text;html=1;strokeColor=none;fillColor=none;align=center;verticalAlign=middle;whiteSpace=wrap;rounded=0;" vertex="1" parent="1">
          <mxGeometry x="-150" y="1750" width="190" height="55" as="geometry" />
        </mxCell>
        <mxCell id="0i7GG34IuzNg3CLDuCly-75" value="pravate deployed by java evn parameter&lt;br&gt;（evn=TST/UAT/PRD&lt;br style=&quot;border-color: var(--border-color);&quot;&gt;applicationId=?）" style="text;html=1;strokeColor=none;fillColor=none;align=center;verticalAlign=middle;whiteSpace=wrap;rounded=0;" vertex="1" parent="1">
          <mxGeometry x="517.5" y="1790" width="222.5" height="30" as="geometry" />
        </mxCell>
        <mxCell id="0i7GG34IuzNg3CLDuCly-76" value="浏览器" style="shape=umlLifeline;perimeter=lifelinePerimeter;whiteSpace=wrap;html=1;container=1;dropTarget=0;collapsible=0;recursiveResize=0;outlineConnect=0;portConstraint=eastwest;newEdgeStyle={&quot;edgeStyle&quot;:&quot;elbowEdgeStyle&quot;,&quot;elbow&quot;:&quot;vertical&quot;,&quot;curved&quot;:0,&quot;rounded&quot;:0};" vertex="1" parent="1">
          <mxGeometry x="89.5" y="2800" width="130.5" height="1600" as="geometry" />
        </mxCell>
        <mxCell id="0i7GG34IuzNg3CLDuCly-81" value="" style="html=1;points=[];perimeter=orthogonalPerimeter;outlineConnect=0;targetShapes=umlLifeline;portConstraint=eastwest;newEdgeStyle={&quot;edgeStyle&quot;:&quot;elbowEdgeStyle&quot;,&quot;elbow&quot;:&quot;vertical&quot;,&quot;curved&quot;:0,&quot;rounded&quot;:0};" vertex="1" parent="0i7GG34IuzNg3CLDuCly-76">
          <mxGeometry x="60" y="70" width="10" height="710" as="geometry" />
        </mxCell>
        <mxCell id="0i7GG34IuzNg3CLDuCly-89" value="Not Exists Token in local" style="shape=umlFrame;whiteSpace=wrap;html=1;pointerEvents=0;width=140;height=20;" vertex="1" parent="0i7GG34IuzNg3CLDuCly-76">
          <mxGeometry x="60" y="250" width="730" height="200" as="geometry" />
        </mxCell>
        <mxCell id="0i7GG34IuzNg3CLDuCly-99" value="" style="html=1;points=[];perimeter=orthogonalPerimeter;outlineConnect=0;targetShapes=umlLifeline;portConstraint=eastwest;newEdgeStyle={&quot;edgeStyle&quot;:&quot;elbowEdgeStyle&quot;,&quot;elbow&quot;:&quot;vertical&quot;,&quot;curved&quot;:0,&quot;rounded&quot;:0};" vertex="1" parent="0i7GG34IuzNg3CLDuCly-76">
          <mxGeometry x="70" y="300" width="10" height="40" as="geometry" />
        </mxCell>
        <mxCell id="0i7GG34IuzNg3CLDuCly-100" value="Return Login Page" style="html=1;align=left;spacingLeft=2;endArrow=block;rounded=0;edgeStyle=orthogonalEdgeStyle;curved=0;rounded=0;" edge="1" target="0i7GG34IuzNg3CLDuCly-99" parent="0i7GG34IuzNg3CLDuCly-76" source="0i7GG34IuzNg3CLDuCly-81">
          <mxGeometry relative="1" as="geometry">
            <mxPoint x="75" y="260" as="sourcePoint" />
            <Array as="points">
              <mxPoint x="105" y="290" />
              <mxPoint x="105" y="320" />
            </Array>
          </mxGeometry>
        </mxCell>
        <mxCell id="0i7GG34IuzNg3CLDuCly-101" value="" style="html=1;points=[];perimeter=orthogonalPerimeter;outlineConnect=0;targetShapes=umlLifeline;portConstraint=eastwest;newEdgeStyle={&quot;edgeStyle&quot;:&quot;elbowEdgeStyle&quot;,&quot;elbow&quot;:&quot;vertical&quot;,&quot;curved&quot;:0,&quot;rounded&quot;:0};" vertex="1" parent="0i7GG34IuzNg3CLDuCly-76">
          <mxGeometry x="60" y="199.89" width="10" height="40" as="geometry" />
        </mxCell>
        <mxCell id="0i7GG34IuzNg3CLDuCly-102" value="&amp;nbsp;把appConfig填入GlobalStorage&lt;br&gt;（appConfigKey=appName_evn）" style="html=1;align=left;spacingLeft=2;endArrow=block;rounded=0;edgeStyle=orthogonalEdgeStyle;curved=0;rounded=0;" edge="1" target="0i7GG34IuzNg3CLDuCly-101" parent="0i7GG34IuzNg3CLDuCly-76">
          <mxGeometry x="-0.0065" relative="1" as="geometry">
            <mxPoint x="65" y="179.89" as="sourcePoint" />
            <Array as="points">
              <mxPoint x="95" y="209.89" />
            </Array>
            <mxPoint as="offset" />
          </mxGeometry>
        </mxCell>
        <mxCell id="0i7GG34IuzNg3CLDuCly-105" value="" style="html=1;verticalAlign=bottom;startArrow=circle;startFill=1;endArrow=open;startSize=6;endSize=8;edgeStyle=elbowEdgeStyle;elbow=vertical;curved=0;rounded=0;" edge="1" parent="0i7GG34IuzNg3CLDuCly-76" target="0i7GG34IuzNg3CLDuCly-106">
          <mxGeometry width="80" relative="1" as="geometry">
            <mxPoint x="70" y="370" as="sourcePoint" />
            <mxPoint x="370" y="470" as="targetPoint" />
            <Array as="points">
              <mxPoint x="150" y="360" />
            </Array>
          </mxGeometry>
        </mxCell>
        <mxCell id="0i7GG34IuzNg3CLDuCly-107" value="登录请求" style="edgeLabel;html=1;align=center;verticalAlign=middle;resizable=0;points=[];" vertex="1" connectable="0" parent="0i7GG34IuzNg3CLDuCly-105">
          <mxGeometry x="0.1458" y="4" relative="1" as="geometry">
            <mxPoint as="offset" />
          </mxGeometry>
        </mxCell>
        <mxCell id="0i7GG34IuzNg3CLDuCly-110" value="Login Success 返回Token" style="html=1;verticalAlign=bottom;endArrow=open;dashed=1;endSize=8;edgeStyle=elbowEdgeStyle;elbow=vertical;curved=0;rounded=0;" edge="1" parent="0i7GG34IuzNg3CLDuCly-76" target="0i7GG34IuzNg3CLDuCly-81">
          <mxGeometry relative="1" as="geometry">
            <mxPoint x="370" y="430.44" as="sourcePoint" />
            <mxPoint x="80.00000000000045" y="429.99555555555565" as="targetPoint" />
          </mxGeometry>
        </mxCell>
        <mxCell id="0i7GG34IuzNg3CLDuCly-77" value="" style="shape=umlLifeline;perimeter=lifelinePerimeter;whiteSpace=wrap;html=1;container=1;dropTarget=0;collapsible=0;recursiveResize=0;outlineConnect=0;portConstraint=eastwest;newEdgeStyle={&quot;edgeStyle&quot;:&quot;elbowEdgeStyle&quot;,&quot;elbow&quot;:&quot;vertical&quot;,&quot;curved&quot;:0,&quot;rounded&quot;:0};participant=umlActor;" vertex="1" parent="1">
          <mxGeometry x="-215" y="2820" width="20" height="850" as="geometry" />
        </mxCell>
        <mxCell id="0i7GG34IuzNg3CLDuCly-78" value="Application Domain" style="shape=umlLifeline;perimeter=lifelinePerimeter;whiteSpace=wrap;html=1;container=1;dropTarget=0;collapsible=0;recursiveResize=0;outlineConnect=0;portConstraint=eastwest;newEdgeStyle={&quot;edgeStyle&quot;:&quot;elbowEdgeStyle&quot;,&quot;elbow&quot;:&quot;vertical&quot;,&quot;curved&quot;:0,&quot;rounded&quot;:0};" vertex="1" parent="1">
          <mxGeometry x="420" y="2800" width="100" height="1540" as="geometry" />
        </mxCell>
        <mxCell id="0i7GG34IuzNg3CLDuCly-111" value="" style="html=1;points=[];perimeter=orthogonalPerimeter;outlineConnect=0;targetShapes=umlLifeline;portConstraint=eastwest;newEdgeStyle={&quot;edgeStyle&quot;:&quot;elbowEdgeStyle&quot;,&quot;elbow&quot;:&quot;vertical&quot;,&quot;curved&quot;:0,&quot;rounded&quot;:0};" vertex="1" parent="0i7GG34IuzNg3CLDuCly-78">
          <mxGeometry x="45" y="500.44" width="10" height="240" as="geometry" />
        </mxCell>
        <mxCell id="0i7GG34IuzNg3CLDuCly-114" value="" style="html=1;points=[];perimeter=orthogonalPerimeter;outlineConnect=0;targetShapes=umlLifeline;portConstraint=eastwest;newEdgeStyle={&quot;edgeStyle&quot;:&quot;elbowEdgeStyle&quot;,&quot;elbow&quot;:&quot;vertical&quot;,&quot;curved&quot;:0,&quot;rounded&quot;:0};" vertex="1" parent="0i7GG34IuzNg3CLDuCly-78">
          <mxGeometry x="50" y="520.8800000000001" width="10" height="40" as="geometry" />
        </mxCell>
        <mxCell id="0i7GG34IuzNg3CLDuCly-115" value="1.校验Token是否有效&lt;br&gt;2. 校验是否applicationId，env是否和token中的信息对应" style="html=1;align=left;spacingLeft=2;endArrow=block;rounded=0;edgeStyle=orthogonalEdgeStyle;curved=0;rounded=0;" edge="1" target="0i7GG34IuzNg3CLDuCly-114" parent="0i7GG34IuzNg3CLDuCly-78">
          <mxGeometry relative="1" as="geometry">
            <mxPoint x="55" y="500.88000000000005" as="sourcePoint" />
            <Array as="points">
              <mxPoint x="85" y="530.8800000000001" />
            </Array>
          </mxGeometry>
        </mxCell>
        <mxCell id="0i7GG34IuzNg3CLDuCly-121" value="" style="html=1;points=[];perimeter=orthogonalPerimeter;outlineConnect=0;targetShapes=umlLifeline;portConstraint=eastwest;newEdgeStyle={&quot;edgeStyle&quot;:&quot;elbowEdgeStyle&quot;,&quot;elbow&quot;:&quot;vertical&quot;,&quot;curved&quot;:0,&quot;rounded&quot;:0};" vertex="1" parent="0i7GG34IuzNg3CLDuCly-78">
          <mxGeometry x="45" y="90.44" width="10" height="49.56" as="geometry" />
        </mxCell>
        <mxCell id="0i7GG34IuzNg3CLDuCly-106" value="" style="html=1;points=[];perimeter=orthogonalPerimeter;outlineConnect=0;targetShapes=umlLifeline;portConstraint=eastwest;newEdgeStyle={&quot;edgeStyle&quot;:&quot;elbowEdgeStyle&quot;,&quot;elbow&quot;:&quot;vertical&quot;,&quot;curved&quot;:0,&quot;rounded&quot;:0};" vertex="1" parent="0i7GG34IuzNg3CLDuCly-78">
          <mxGeometry x="40" y="360" width="10" height="70" as="geometry" />
        </mxCell>
        <mxCell id="0i7GG34IuzNg3CLDuCly-79" value="Org Domain" style="shape=umlLifeline;perimeter=lifelinePerimeter;whiteSpace=wrap;html=1;container=1;dropTarget=0;collapsible=0;recursiveResize=0;outlineConnect=0;portConstraint=eastwest;newEdgeStyle={&quot;edgeStyle&quot;:&quot;elbowEdgeStyle&quot;,&quot;elbow&quot;:&quot;vertical&quot;,&quot;curved&quot;:0,&quot;rounded&quot;:0};" vertex="1" parent="1">
          <mxGeometry x="805" y="2790" width="100" height="1590" as="geometry" />
        </mxCell>
        <mxCell id="0i7GG34IuzNg3CLDuCly-80" value="http://domain/application?name=cms&amp;amp;env=DEV" style="html=1;verticalAlign=bottom;startArrow=circle;startFill=1;endArrow=open;startSize=6;endSize=8;edgeStyle=elbowEdgeStyle;elbow=vertical;curved=0;rounded=0;" edge="1" parent="1" source="0i7GG34IuzNg3CLDuCly-77" target="0i7GG34IuzNg3CLDuCly-81">
          <mxGeometry width="80" relative="1" as="geometry">
            <mxPoint x="-140" y="2880" as="sourcePoint" />
            <mxPoint x="-60" y="2880" as="targetPoint" />
            <Array as="points">
              <mxPoint x="-150" y="2870" />
            </Array>
          </mxGeometry>
        </mxCell>
        <mxCell id="0i7GG34IuzNg3CLDuCly-103" value="输入用户名密码，登录" style="html=1;verticalAlign=bottom;startArrow=circle;startFill=1;endArrow=open;startSize=6;endSize=8;edgeStyle=elbowEdgeStyle;elbow=vertical;curved=0;rounded=0;" edge="1" parent="1">
          <mxGeometry width="80" relative="1" as="geometry">
            <mxPoint x="-203" y="3100" as="sourcePoint" />
            <mxPoint x="162" y="3100" as="targetPoint" />
            <Array as="points">
              <mxPoint x="-148" y="3100" />
            </Array>
          </mxGeometry>
        </mxCell>
        <mxCell id="0i7GG34IuzNg3CLDuCly-108" value="页面在请求后端api接口时， header 必须携带 applcationId，env请求头" style="shape=note;size=20;whiteSpace=wrap;html=1;" vertex="1" parent="1">
          <mxGeometry x="305" y="2695" width="110" height="95" as="geometry" />
        </mxCell>
        <mxCell id="0i7GG34IuzNg3CLDuCly-109" value="" style="endArrow=open;endSize=12;dashed=1;html=1;rounded=0;" edge="1" parent="1" source="0i7GG34IuzNg3CLDuCly-108">
          <mxGeometry width="160" relative="1" as="geometry">
            <mxPoint x="-280" y="2972.5" as="sourcePoint" />
            <mxPoint x="360" y="3160" as="targetPoint" />
          </mxGeometry>
        </mxCell>
        <mxCell id="0i7GG34IuzNg3CLDuCly-113" value="return" style="html=1;verticalAlign=bottom;endArrow=open;dashed=1;endSize=8;edgeStyle=elbowEdgeStyle;elbow=vertical;curved=0;rounded=0;" edge="1" parent="1">
          <mxGeometry relative="1" as="geometry">
            <mxPoint x="159.99888888888916" y="3530.440000000001" as="targetPoint" />
            <mxPoint x="460.61" y="3530.440000000001" as="sourcePoint" />
            <Array as="points">
              <mxPoint x="355.61" y="3530.44" />
              <mxPoint x="365.61" y="3340.44" />
            </Array>
          </mxGeometry>
        </mxCell>
        <mxCell id="0i7GG34IuzNg3CLDuCly-116" value="Option：invalid token" style="shape=umlFrame;whiteSpace=wrap;html=1;pointerEvents=0;width=190;height=20;" vertex="1" parent="1">
          <mxGeometry x="160" y="3370.88" width="325.5" height="130" as="geometry" />
        </mxCell>
        <mxCell id="0i7GG34IuzNg3CLDuCly-117" value="return 401" style="html=1;verticalAlign=bottom;endArrow=open;dashed=1;endSize=8;edgeStyle=elbowEdgeStyle;elbow=vertical;curved=0;rounded=0;" edge="1" parent="1">
          <mxGeometry relative="1" as="geometry">
            <mxPoint x="470" y="3410.88" as="sourcePoint" />
            <mxPoint x="170.00000000000045" y="3410.880000000001" as="targetPoint" />
            <Array as="points">
              <mxPoint x="420" y="3410.88" />
            </Array>
          </mxGeometry>
        </mxCell>
        <mxCell id="0i7GG34IuzNg3CLDuCly-118" value="" style="html=1;points=[];perimeter=orthogonalPerimeter;outlineConnect=0;targetShapes=umlLifeline;portConstraint=eastwest;newEdgeStyle={&quot;edgeStyle&quot;:&quot;elbowEdgeStyle&quot;,&quot;elbow&quot;:&quot;vertical&quot;,&quot;curved&quot;:0,&quot;rounded&quot;:0};" vertex="1" parent="1">
          <mxGeometry x="162" y="3470.88" width="10" height="20" as="geometry" />
        </mxCell>
        <mxCell id="0i7GG34IuzNg3CLDuCly-119" value="Redirect login Page，and clear&amp;nbsp; token" style="html=1;align=left;spacingLeft=2;endArrow=block;rounded=0;edgeStyle=orthogonalEdgeStyle;curved=0;rounded=0;" edge="1" target="0i7GG34IuzNg3CLDuCly-118" parent="1">
          <mxGeometry relative="1" as="geometry">
            <mxPoint x="167" y="3450.88" as="sourcePoint" />
            <Array as="points">
              <mxPoint x="197" y="3480.88" />
            </Array>
          </mxGeometry>
        </mxCell>
        <mxCell id="0i7GG34IuzNg3CLDuCly-122" value="根据name和evn获取app config" style="html=1;verticalAlign=bottom;endArrow=block;edgeStyle=elbowEdgeStyle;elbow=vertical;curved=0;rounded=0;" edge="1" target="0i7GG34IuzNg3CLDuCly-121" parent="1" source="0i7GG34IuzNg3CLDuCly-81">
          <mxGeometry relative="1" as="geometry">
            <mxPoint x="170" y="2890.44" as="sourcePoint" />
            <Array as="points">
              <mxPoint x="200" y="2890" />
            </Array>
          </mxGeometry>
        </mxCell>
        <mxCell id="0i7GG34IuzNg3CLDuCly-123" value="return：applicationId，evn，tokenRule" style="html=1;verticalAlign=bottom;endArrow=open;dashed=1;endSize=8;edgeStyle=elbowEdgeStyle;elbow=vertical;curved=0;rounded=0;" edge="1" parent="1" target="0i7GG34IuzNg3CLDuCly-81">
          <mxGeometry relative="1" as="geometry">
            <mxPoint x="170" y="2940.33" as="targetPoint" />
            <mxPoint x="465" y="2940.001111111111" as="sourcePoint" />
          </mxGeometry>
        </mxCell>
        <mxCell id="0i7GG34IuzNg3CLDuCly-112" value="getLoginUserInfo" style="html=1;verticalAlign=bottom;endArrow=block;edgeStyle=elbowEdgeStyle;elbow=vertical;curved=0;rounded=0;" edge="1" parent="1">
          <mxGeometry relative="1" as="geometry">
            <mxPoint x="159.5" y="3299.9955555555557" as="sourcePoint" />
            <mxPoint x="462.5" y="3300.4355555555558" as="targetPoint" />
          </mxGeometry>
        </mxCell>
        <mxCell id="0i7GG34IuzNg3CLDuCly-124" value="Assets" style="childLayout=tableLayout;recursiveResize=0;strokeColor=#98bf21;fillColor=#A7C942;shadow=1;" vertex="1" parent="1">
          <mxGeometry x="940" y="2820" width="432.5" height="190" as="geometry" />
        </mxCell>
        <mxCell id="0i7GG34IuzNg3CLDuCly-125" style="shape=tableRow;horizontal=0;startSize=0;swimlaneHead=0;swimlaneBody=0;top=0;left=0;bottom=0;right=0;dropTarget=0;collapsible=0;recursiveResize=0;expand=0;fontStyle=0;strokeColor=inherit;fillColor=#ffffff;" vertex="1" parent="0i7GG34IuzNg3CLDuCly-124">
          <mxGeometry width="432.5" height="33" as="geometry" />
        </mxCell>
        <mxCell id="0i7GG34IuzNg3CLDuCly-126" value="接口" style="connectable=0;recursiveResize=0;strokeColor=inherit;fillColor=#A7C942;align=center;fontStyle=1;fontColor=#FFFFFF;html=1;" vertex="1" parent="0i7GG34IuzNg3CLDuCly-125">
          <mxGeometry width="93" height="33" as="geometry">
            <mxRectangle width="93" height="33" as="alternateBounds" />
          </mxGeometry>
        </mxCell>
        <mxCell id="0i7GG34IuzNg3CLDuCly-127" value="url" style="connectable=0;recursiveResize=0;strokeColor=inherit;fillColor=#A7C942;align=center;fontStyle=1;fontColor=#FFFFFF;html=1;" vertex="1" parent="0i7GG34IuzNg3CLDuCly-125">
          <mxGeometry x="93" width="94" height="33" as="geometry">
            <mxRectangle width="94" height="33" as="alternateBounds" />
          </mxGeometry>
        </mxCell>
        <mxCell id="0i7GG34IuzNg3CLDuCly-128" value="描述" style="connectable=0;recursiveResize=0;strokeColor=inherit;fillColor=#A7C942;align=center;fontStyle=1;fontColor=#FFFFFF;html=1;" vertex="1" parent="0i7GG34IuzNg3CLDuCly-125">
          <mxGeometry x="187" width="246" height="33" as="geometry">
            <mxRectangle width="246" height="33" as="alternateBounds" />
          </mxGeometry>
        </mxCell>
        <mxCell id="0i7GG34IuzNg3CLDuCly-129" value="" style="shape=tableRow;horizontal=0;startSize=0;swimlaneHead=0;swimlaneBody=0;top=0;left=0;bottom=0;right=0;dropTarget=0;collapsible=0;recursiveResize=0;expand=0;fontStyle=0;strokeColor=inherit;fillColor=#ffffff;" vertex="1" parent="0i7GG34IuzNg3CLDuCly-124">
          <mxGeometry y="33" width="432.5" height="32" as="geometry" />
        </mxCell>
        <mxCell id="0i7GG34IuzNg3CLDuCly-130" value="获取appConfig" style="connectable=0;recursiveResize=0;strokeColor=inherit;fillColor=inherit;align=center;whiteSpace=wrap;html=1;" vertex="1" parent="0i7GG34IuzNg3CLDuCly-129">
          <mxGeometry width="93" height="32" as="geometry">
            <mxRectangle width="93" height="32" as="alternateBounds" />
          </mxGeometry>
        </mxCell>
        <mxCell id="0i7GG34IuzNg3CLDuCly-131" value="app/config" style="connectable=0;recursiveResize=0;strokeColor=inherit;fillColor=inherit;align=center;whiteSpace=wrap;html=1;" vertex="1" parent="0i7GG34IuzNg3CLDuCly-129">
          <mxGeometry x="93" width="94" height="32" as="geometry">
            <mxRectangle width="94" height="32" as="alternateBounds" />
          </mxGeometry>
        </mxCell>
        <mxCell id="0i7GG34IuzNg3CLDuCly-132" value="获取appConfig，无限权限校验" style="connectable=0;recursiveResize=0;strokeColor=inherit;fillColor=inherit;align=center;whiteSpace=wrap;html=1;" vertex="1" parent="0i7GG34IuzNg3CLDuCly-129">
          <mxGeometry x="187" width="246" height="32" as="geometry">
            <mxRectangle width="246" height="32" as="alternateBounds" />
          </mxGeometry>
        </mxCell>
        <mxCell id="0i7GG34IuzNg3CLDuCly-133" value="" style="shape=tableRow;horizontal=0;startSize=0;swimlaneHead=0;swimlaneBody=0;top=0;left=0;bottom=0;right=0;dropTarget=0;collapsible=0;recursiveResize=0;expand=0;fontStyle=1;strokeColor=inherit;fillColor=#EAF2D3;" vertex="1" parent="0i7GG34IuzNg3CLDuCly-124">
          <mxGeometry y="65" width="432.5" height="31" as="geometry" />
        </mxCell>
        <mxCell id="0i7GG34IuzNg3CLDuCly-134" value="login" style="connectable=0;recursiveResize=0;strokeColor=inherit;fillColor=inherit;whiteSpace=wrap;html=1;" vertex="1" parent="0i7GG34IuzNg3CLDuCly-133">
          <mxGeometry width="93" height="31" as="geometry">
            <mxRectangle width="93" height="31" as="alternateBounds" />
          </mxGeometry>
        </mxCell>
        <mxCell id="0i7GG34IuzNg3CLDuCly-135" value="/login" style="connectable=0;recursiveResize=0;strokeColor=inherit;fillColor=inherit;whiteSpace=wrap;html=1;" vertex="1" parent="0i7GG34IuzNg3CLDuCly-133">
          <mxGeometry x="93" width="94" height="31" as="geometry">
            <mxRectangle width="94" height="31" as="alternateBounds" />
          </mxGeometry>
        </mxCell>
        <mxCell id="0i7GG34IuzNg3CLDuCly-136" value="登录，返回token信息" style="connectable=0;recursiveResize=0;strokeColor=inherit;fillColor=inherit;whiteSpace=wrap;html=1;" vertex="1" parent="0i7GG34IuzNg3CLDuCly-133">
          <mxGeometry x="187" width="246" height="31" as="geometry">
            <mxRectangle width="246" height="31" as="alternateBounds" />
          </mxGeometry>
        </mxCell>
        <mxCell id="0i7GG34IuzNg3CLDuCly-137" value="" style="shape=tableRow;horizontal=0;startSize=0;swimlaneHead=0;swimlaneBody=0;top=0;left=0;bottom=0;right=0;dropTarget=0;collapsible=0;recursiveResize=0;expand=0;fontStyle=0;strokeColor=inherit;fillColor=#ffffff;" vertex="1" parent="0i7GG34IuzNg3CLDuCly-124">
          <mxGeometry y="96" width="432.5" height="33" as="geometry" />
        </mxCell>
        <mxCell id="0i7GG34IuzNg3CLDuCly-138" value="getCurrentUser" style="connectable=0;recursiveResize=0;strokeColor=inherit;fillColor=inherit;fontStyle=0;align=center;whiteSpace=wrap;html=1;" vertex="1" parent="0i7GG34IuzNg3CLDuCly-137">
          <mxGeometry width="93" height="33" as="geometry">
            <mxRectangle width="93" height="33" as="alternateBounds" />
          </mxGeometry>
        </mxCell>
        <mxCell id="0i7GG34IuzNg3CLDuCly-139" value="/currentUser" style="connectable=0;recursiveResize=0;strokeColor=inherit;fillColor=inherit;fontStyle=0;align=center;whiteSpace=wrap;html=1;" vertex="1" parent="0i7GG34IuzNg3CLDuCly-137">
          <mxGeometry x="93" width="94" height="33" as="geometry">
            <mxRectangle width="94" height="33" as="alternateBounds" />
          </mxGeometry>
        </mxCell>
        <mxCell id="0i7GG34IuzNg3CLDuCly-140" value="根据token，获取登录用户信息" style="connectable=0;recursiveResize=0;strokeColor=inherit;fillColor=inherit;fontStyle=0;align=center;whiteSpace=wrap;html=1;" vertex="1" parent="0i7GG34IuzNg3CLDuCly-137">
          <mxGeometry x="187" width="246" height="33" as="geometry">
            <mxRectangle width="246" height="33" as="alternateBounds" />
          </mxGeometry>
        </mxCell>
        <mxCell id="0i7GG34IuzNg3CLDuCly-141" value="" style="shape=tableRow;horizontal=0;startSize=0;swimlaneHead=0;swimlaneBody=0;top=0;left=0;bottom=0;right=0;dropTarget=0;collapsible=0;recursiveResize=0;expand=0;fontStyle=1;strokeColor=inherit;fillColor=#EAF2D3;" vertex="1" parent="0i7GG34IuzNg3CLDuCly-124">
          <mxGeometry y="129" width="432.5" height="61" as="geometry" />
        </mxCell>
        <mxCell id="0i7GG34IuzNg3CLDuCly-142" value="app 要校验applicationID和env" style="connectable=0;recursiveResize=0;strokeColor=inherit;fillColor=inherit;whiteSpace=wrap;html=1;" vertex="1" parent="0i7GG34IuzNg3CLDuCly-141">
          <mxGeometry width="93" height="61" as="geometry">
            <mxRectangle width="93" height="61" as="alternateBounds" />
          </mxGeometry>
        </mxCell>
        <mxCell id="0i7GG34IuzNg3CLDuCly-143" value="" style="connectable=0;recursiveResize=0;strokeColor=inherit;fillColor=inherit;whiteSpace=wrap;html=1;" vertex="1" parent="0i7GG34IuzNg3CLDuCly-141">
          <mxGeometry x="93" width="94" height="61" as="geometry">
            <mxRectangle width="94" height="61" as="alternateBounds" />
          </mxGeometry>
        </mxCell>
        <mxCell id="0i7GG34IuzNg3CLDuCly-144" value="需要在入口工程做interceptor" style="connectable=0;recursiveResize=0;strokeColor=inherit;fillColor=inherit;whiteSpace=wrap;html=1;" vertex="1" parent="0i7GG34IuzNg3CLDuCly-141">
          <mxGeometry x="187" width="246" height="61" as="geometry">
            <mxRectangle width="246" height="61" as="alternateBounds" />
          </mxGeometry>
        </mxCell>
        <mxCell id="0i7GG34IuzNg3CLDuCly-145" value="&lt;h1&gt;登录 scenario&lt;/h1&gt;" style="text;html=1;strokeColor=none;fillColor=none;spacing=5;spacingTop=-20;whiteSpace=wrap;overflow=hidden;rounded=0;" vertex="1" parent="1">
          <mxGeometry x="-230" y="2630" width="190" height="120" as="geometry" />
        </mxCell>
        <mxCell id="0i7GG34IuzNg3CLDuCly-147" value=":isLeaf" style="html=1;whiteSpace=wrap;" vertex="1" parent="1">
          <mxGeometry x="780" y="1550" width="45" height="31" as="geometry" />
        </mxCell>
        <mxCell id="0i7GG34IuzNg3CLDuCly-148" value="" style="endArrow=diamondThin;endFill=0;endSize=24;html=1;rounded=0;entryX=0;entryY=0.5;entryDx=0;entryDy=0;exitX=1.018;exitY=-0.205;exitDx=0;exitDy=0;exitPerimeter=0;" edge="1" parent="1" source="0i7GG34IuzNg3CLDuCly-18" target="0i7GG34IuzNg3CLDuCly-147">
          <mxGeometry width="160" relative="1" as="geometry">
            <mxPoint x="572.5" y="1562" as="sourcePoint" />
            <mxPoint x="782.5" y="1560" as="targetPoint" />
          </mxGeometry>
        </mxCell>
        <mxCell id="0i7GG34IuzNg3CLDuCly-149" value="1...1" style="edgeLabel;html=1;align=center;verticalAlign=middle;resizable=0;points=[];" vertex="1" connectable="0" parent="0i7GG34IuzNg3CLDuCly-148">
          <mxGeometry x="-0.8154" y="-2" relative="1" as="geometry">
            <mxPoint y="-15" as="offset" />
          </mxGeometry>
        </mxCell>
      </root>
    </mxGraphModel>
  </diagram>
</mxfile>
